<mxfile host="Electron" agent="Mozilla/5.0 (Windows NT 10.0; Win64; x64) AppleWebKit/537.36 (KHTML, like Gecko) draw.io/26.2.2 Chrome/134.0.6998.178 Electron/35.1.2 Safari/537.36" version="26.2.2">
  <diagram name="Page-1" id="24jTYc5ixigEtVazzE0e">
    <mxGraphModel dx="856" dy="1127" grid="1" gridSize="10" guides="1" tooltips="1" connect="1" arrows="1" fold="1" page="1" pageScale="1" pageWidth="850" pageHeight="1100" math="0" shadow="0">
      <root>
        <mxCell id="0" />
        <mxCell id="1" parent="0" />
        <mxCell id="C7TibH1BOBcT31BDN6Mo-4" value="" style="shape=image;verticalLabelPosition=bottom;labelBackgroundColor=none;verticalAlign=top;aspect=fixed;imageAspect=0;image=data:image/jpeg,/9j/4AAQSkZJRgABAQEBLAEsAAD/2wBDAAMCAgMCAgMDAwMEAwMEBQgFBQQEBQoHBwYIDAoMDAsKCwsNDhIQDQ4RDgsLEBYQERMUFRUVDA8XGBYUGBIUFRT/2wBDAQMEBAUEBQkFBQkUDQsNFBQUFBQUFBQUFBQUFBQUFBQUFBQUFBQUFBQUFBQUFBQUFBQUFBQUFBQUFBQUFBQUFBT/wgARCAEsASYDAREAAhEBAxEB/8QAHAAAAAcBAQAAAAAAAAAAAAAAAAEDBAUGBwII/8QAGgEAAgMBAQAAAAAAAAAAAAAAAAECAwQFBv/aAAwDAQACEAMQAAABw7dhAAAAAAAAACAwAAAAAAAAACAwAEBgAAAAAAgMAAADAEIAYAAAAwICAwAEBgAAAYEAAAYACAAAAAAQGAAAAIDAAAAACAwA7PWWKoDAmTRjMQGEARhw3Rb0xaIdo5i0jgRgdzp3VK/vYAByMg5AAYEMAAAgADoOxAOB65RXoOTTVtGd9Cawq/bWYBBgAAwOm2ypVjneetd8/Uy2tPXJ/lK5B5T6WRholVsxTOYhIDrtkLJCRoIZgSDCn3VZxppAuCWp1Vatz92f7ccvCb6DpuijoDQGBAAgqlllPlK65YXIOQewbGw5zmV7GyuNgxa2MlY4RNldmrJXIxgVdsWgZra/bCpWwzPTR0JMlp1dSopCEpyubhOsX1tiIAwAAOR1ecqpKejVQfQJVIIiZknFZJO1rcpSUl4y0PFMghplirnyIxcSnJ1ziJ01y2FC0VGJMeiRggqndNsjacs4FwLtPlogATNVufXxrTnblGx1RQY5SYycjAyjTZ1GKRI2u0gBDMQCYxqyckonoJOaxrcgABMloqrTikuNN7249JcAYS8JsbIpCcqNuybMf256+TDlo1dS0Ui2+SpV1lbBZRATGFGnKZkvWUztSlcZ1Eh9Vstnp6jahdXG6kATHcqIzVnOqt3Ttfl4S01bPPQViVLuurejtK1O+KMOgQpKD1MVSa6JWFVuIkNKUdCVpwUwXQfcSw80e0lc2yfZYvFGG3S7zuRpsit1baeiay5oDooAmS0LztT+lzGKPVcYbbOs9aUbtnZeLXf+HXH7Cp9OxbOUfu2sta2rxNGIe10tJsgXSvXEpsnOjmvpbdN8rVa+XFrMJrqTaTnIUQZaHE3ymcsW7EbpY37O0px5GzVuiedopXduSvXUkYyAgAc0ua58F0VHrTuPHqRdzHfbM5a56qqOrVY6MlKox21tXMm+QkciZbH0CcRUFJJIOBqAca3CiAaubFzkKRGxCQrWJTAIAGBOSq0pTy65yO9X6eVYejlTcTrjJ1dKS4kardzYDfKgdyxFyUgLQTK6SqRgADRAEKCcqJiATlc+JEJKPUbJfHOWx52OhwHSdi5ZIWdal9Dlahye+ni4szy80XpMm9ZoYWvoXClaMtejeaznolWNl8Nv2R1mNZSs0NLiEwOvaMdnz7aXr509RpmqtWe7uQBAAMw5Za+UmE3B9FlXI5u4Y99Yvo7RdeOpnn4Mr9Boa9CzduddpOS54nUb6sU2Z871Q9DeMxyvOjnPoL6l2NodCOhdqTaUEWdxa0I82SeQsjbKAIAQ5fGtc8fS/rHVSi9s8z9HZVOq7pz+1Sd3KmcXRvfD42Q+r0PiG7YZa9z91O1ZUnGy0X3TNr839PJhWvNbOarJza6N25vyELufQaXllbMxLSlW8tNE6dlP0QAAAEthNk8ZnrXrb3InURCxq8SGad6yD2anlV1p5tUhzsGW+t0arTTIQTtSsVF8Bdm6Cfpv3Dl9byL2cGZaYaJxbI3VCF1UIXrTs7mYKSgnKTFtTG8s6rrVsQMBffN1Seh2PfZfcep5GVN05abOrnzscp9jbK4J6L550Ls0pdd3euKqU5Xf6Q4nXyjdizPfzjFo2LdJ0bPIPb5mh+dZWlE7cXTWrZ4vVGap03TLsznbgjqqoa+eaawCINO8jUp3JSmm3YeZsIM13Za1ooYeaM39XbrPkKJvnxxf22ma0xs0YKxJyq/0rxOwSKjopwzrch7F+g+L2vBXpePq/j6qB6PfF68s3GN5ri/itx5PYtNF+T78Ofb+dCc95p17OyIC1cNSHUJObtmTTKRKLsoYFZ+ajnfq7kI3ax5fNnvfm/1xtEYqpT1Wj0vw+uEZ3szYp1eWvGOw8zqeQe1g1zxdGc+s6cZfjdBe4QlYRms+vQcmnJ+lgYWVxLdHnI0gDR2WEVshUnGQSXsVfonXlPjTDonpHl5VPp1RXWfpLlact6WKdov9I8XrYb1efn+zCoHLIBzgKHpPn4Zt6Tc2nlQZKMm4Kxxr7E2brM7K+5iMDEQ2pPicptQk0jSjXKFcwlLUXot3biZrJyMuNe407jis4srr9kXUZsLaTDkEmUWVtq4deicvfkvpbmc87S7JFytkBPRLCbDjSRqLxQIRDtHHVO7Nkc7FxBiIPlGTz3qxzVjTdaMD1PzXPz30d9W6VnoPnWRN9S0Sp6quQTHUHZJ86GkebozT1XRqWyvTOd0a5qxLSz1eyTVyAGEgq5xQYDSEAs2bexspTaRBVNUCHcuf167Hz0Fq0w2ydojksnIUY1Q+3fYYqaSYzTAcM5SeavWfIUVzpbM/9BdzPL0CiBJP4rkOGN1Jci2YQjADsVG1lOrmUVYS7UkpwCcLbQ/zCFoyc1Y6rPzoaZ5rAyujnfobq/umkyexwv3Crt3IrzD0emk97Ygh/PHt+B2XLGg1LJO9KTTlaFrnOUhbLFdSqmtAQAEvQXN2XfNf5v6uCr3VT0J+j+Vvg5R84dbA4oSUhhPa1spnMtln5uO8+epXiR+qb7LHNPV38QInoa69aWGnPcslOpFusc/p4f0uXkexQczaM0Nj5nRSaw2nnZZ6GZiAWWmz1NyejStedxRd5h7HN9BczbLCveXT5u6eKiaK9a5Hosc7HAbDRV3MqJ/HGL2TfRkVdsXdVzCx/CZXYrHy6mVtmrcqGgbejlHT5ua2yZovcYbDztqbeH9HHWpBpACVnrTjbbDW/PfTpy/XkvmbT6L5l6kX4/7mJhKDurYSBGbacWkwhR9tRBIVXuqjm/KpC15GfBBhKt84zdkIYnHqLpRZu2yyrMKwTeQqMABDaO1/EZSg6UeCaim0ml1WEP6NqLzzuCjlWQXRilcu69XUZPs9LuqiK2bQ2HW3szkJnKaJJwou1ACTcmLmY3yr7UQADkYADAEFlrlXbIPE7BUVu1kpdOKiH+cZaDoXA+hgAIAAUheThzKsg4BUcdKHIaPmcnnump10i5UPRECIem0K0VhC6ZwFCtnSrV6s5e2p6MFe0TXjJQLbl83M00gQGAAECpOQhtSlUcJx1mECMcfPdsHO9n5K7XNz3TRr+empGy3LKYY/psauPA9Uqg4ihhLJ5WNL9tNhc6LOVnpth9FaIGLlk5XkWUDAAQwBgYJqIbAdgAAcl1ny9DPNVLaUdQ85Ux2XO+jUbM5tsZi4JaPGtUVUp0WLBQv1SIbp7kYavj1XLPcAIABgADCQGEBoAGwgMCAAaMK6OKKnBQd1IK88e85JdRZ/stRaTHpXLrmedCB03te3BZqJcqwnOQb8GrS6fILA2EaOhqsRH0ID7BIRgqmm0gJwNRFasSQ7tnglocv5+thGVK7liF0eR6t46riTtnOg4qjE7ZVDtW5/3p3aMLBAiq3L82pSsUiIN2LlqJ6QnNNrJdJGh1SNbmQPKFI86InKI6SWpMy718Fod74FkxXnXyRzP19zIO1EhtpTlCPVDkMjSjGu9KTsg9cupDOEnuVdNdxQiWvjQc1KM0lV7NriIlYKQHmYeZYy+WFY69i1cZbBGq9q2L0M3EQts/MohupNpY01FwogGbsaEliJtkJ0orJN3Js2oghgDBMHdS6Bla+mcAqkQAOQQJrETa4GqJ4odoZObZyAOCLyMOhAAAAAAAACAwAAAAAAQzAABAAAGAAgAAABgAIAAAEBjIRgQGAAgMABAQAZgBAABgAAEAAwIDAgAGMhGHIGBgQAABgAIABh/8QAMhAAAQQCAQMDAgUDBAMAAAAABAECAwUABhQREhMQFRYXIQciIzEyICQzJTQ2YCY1Qf/aAAgBAQABBQL/AKZVUvPZ8YCz4wFnxgLPi4WfFwc+LhZ8XCz4uFnxcLPi4WLq4fQ0KQCf0F1qwKyXShOEVossIp1AfWw+vXOqJnkbnkbnenTyNzyNzytzyMzyNzyNxHI71f8AxFd2ji6ySUIyGR5cNbLPjKxXs8md+d+d+d+d+d+bH948p6l1uS4wprl50eMg5iwPIBy0oELrfTUtYKvGu8uh3X1LGz6mD4Pu0MN19Sxs+pg2fUwbPqWPn1LHz6mD5s23xbAH6P8A4QL+kDuLIAVPkU5903yrsiPYi51zrnXOud2d2X6/p5rgz3RueyuGhCY5SRhicHmfFNKN4UMaqE5om4Q0sexbiy02P6hVufUGsyDcAIrz6h1efUOqz6hVeCWSXW5W+xxUUn1Cq82baQ7sD0f/AAhX9HqmAjc0qGmQ2GOpDnnIY2KfrnXOudc64q5eL+nmv/arLcnI7878MX9dXdULkWQrKsnw48uL3b5JQ58kosHuqhlv8l1zPkmuZ8l13NR2SuA2T8SNlBODi2OhbFsVvWWAno/+ESd0DyVbG2R8WONIe+MueJ75XSv64jHuT9s6598JpjRBrpfyZr5KKOXGs8MB7ZVlJZCyDuKnnlSKNX+WXHRo/GtRvr19amu9zN2ivADGihVzyhZAyPV/8BpnRNJe+RsmxFGNSZ2ed2KV24hKrkdwVDA8mSR/ldjD5o8s9vksK+3Xq3A51GnGNbO2aKMlsYkEbnSo1LSy70iTtZ6VMYcxVhWqFlRStKTbIIhz2oiutRxQ5HVtkFAkcj5qqwZWmFTS3VgdXT1r/R/8E8vDKmB9vkkVhE0oMo42tlSuFrwq6Hj1s0pGuPZj3LE7uwAWAuAFsli+7ao5f7YcBNAsBro1jtX5JbPwqz7shilNltKiSpbjGOke/WLBEl1C1HiHnWtNOOS1sigIbAiamLrY2WNg0Kvv56aYlxJhDGyyMtag8D1f/CnrVsq9uldkqa1XxpMdXUEcO2vcyS8PmSKWWAqhtZBiWXwVjntddYNP00qWVmoGRJYhNrzXfxjJG2CrfEj8UPOHjBmtzVpIo7MwOfaFMh4hVWYBQAi7IOZGzZR3pYSAOiD2gMnPmYGSX8bVfsAtXhO21zyCtuGFe3Zq1jStqrSRleyR+OTqgsvgdR3DuLJZumewmJHcmFVQtmIbH15Ma4+eB6RG+DG7GX5Lu2keYO3q+osAwsUySQ5gM2A1bZXT6tOXJ7KPxT68kKEW3NhC6flYZ9lKYqrPEqTXc5KKWx2c5vTkRORC425z2KjS42Zym4pjfHC3tj9JYEkzwSIodW4ybiNziNxK5Vj4rc4jc4jc4jc4jekNAZMIxirlDrNcbT0kMc4ghlaPDLsccbWbM1X1xQtvZEkjVpr6GqtJLjX4KqB47XqgiZHXunmnq3Cy8T78RucRucRucRucVucRuNHa1fWrrW2T216KO5OuM/SdAK+zyjumU74aqQ4LA3Vft9N7KtSi/lqdukiqKzWiOhGt1sCF7SBViz2s0z0lmx0k7k5EjcpkksCGmfHskHadl/Xg1JUY0JDGyTgzkoT30AIxaXwAkAoQ4DqixHiFnOqhR6YcZ5T9fAhPLuK4D27+obWLAqFoFpAN29uJJMPF9kULVDrACKHzRitY9+vvV8pWyLXMtL8m0bXUpdpLU/hR1jG/D6kGcRo9ISyx/C2uIS80+01l3lmWbWxpgw3ljGS7NUCjxVqzIZZDSililShTmGzny+R/a5338jnoQPIHJFK+CU2xJsXev7ZWVk9rLX60AAxuwR8su7URs9WBsMR2tmBy4DuB1WF1Xqx7iWnzOpQjCnEOr65xMmrFx0U5+yCBLLtxL1TazEUPbYZFa+IuHd9CQVkR5YL9eOe4+rm5gZhSOPhqCyRMa1XurdRbJGO+pq3E2TvEiNMfb65PW/01U8otjXTSSktH5bp3NHWBj/JMI+RRnSEEW9YtUa53Vo/gnyjFepu5FxshGgd1EHaLCmDRSGFWdCXURI7O7Kq4krJhyIy4N91ptLZBzuDnGibXhkAEFu5E7Yc1qtbDEsz7RYY4x2d+ECxE4GY9Eva1teT66pF95JXmlVFapbg6WEV9hXxWGWNW6vYbK5rNmllfWZJRzurdbkdKuwSkSWVTH3lpnXNeX/yLp9rzU+xFVWr1zULDsn/ECvQ7Wnu8L3WzLQOrNnz91Fh5JR7u+FHdqVVLPe5NpQixERT15ZCublgjSaD11h3UBw61z6yUlln3Z3ZsU5CnL0e17lTW1XogXcFVVxEHANdI+wpunai+mvf8i9LvXILZCh5QSamZYrM6JhAbfzQ61V+CssIvLKn7U/8A7KR/+oOd+XV5I3a93Zu6xebvweybWix/4/TXbJguCSpO5tiVXSU+4Rnz3myR0yS3ZlrhMitiu5UDqMjY1Sa3u7bBrGWNPInVFzrmu/8AI/S+2+KvWSeUmYWdBySNwr0Bj/x1UcIutEy+ARP2Gm8BZEiMk7spNgloXEbqDFESdPZmEz+GEt7YKxv2b6eVYChyPBIyZsjJ4kIYyJY5HSI1FtHsJNsZbIzIfsTrzfK2+eJ7kE7xHQafCob2ujfrn/IyCYhILzcJrLGp0zrirlxL0DGEmMkPejQCYfELkydYxrBZoxD/AA42RHJ3ZMSyBsxSzyFmKQ/1mi8qDk9MZK6Neak0aGNiZJO+XCCemDQ9ucV3VwRLJaB8jZLsBlhXy9e2k3eRaceqNt2r5R5zrI20XOuK7FdhZXML1sKUgscCEwy3mStuHpHKzHtdA+Mxqo1UbilSPx8jWZMZ1waBUxWq1fQ21CJpZYUkzpJCqGPTFMfn6k6xQJHiOWKMatIMZP1R9eYRGNVWrpp7CrmhSOZ4E+vbrAwACN99bX9XDUv7878V3RLCx8+UdJ7moUcQlMR3FuHj711SuGszbQaMOylAibVPE64sErc8cuIO92RwNjzo0NZZXTyelTSe6D1df7kRXg886IHknWNYtSdZ1/tpFjX8CK0q6uDW6OY2B9oXEbZcxZJhpuuNgeXBeg98nZIO6v2acCYvaEs3e6j5LdsTJCCDcBrpZ3C67BWiO2KZICJnHEwp0jcmJGrG/vkBXHjHJ46DEcab/K5JnMj/AKK2+Lqoa6ylqyAbCSvMCs5QbC2tprgqys5bWc6zlsI0jajoDSRWwQPneZXyDyCtSKKO2dx6o+KUQ/WQikK16dkk1W+BWgK54+tGzYLqQkGSEjVY9psalwWBHbMNF4ox4HkS1VIHVxzmLIOXRQnu/wDppI8+UdXKU+tWUZ5fHPbd0yV8n9Gv/hxA6A3QKYqDYdeI103KWlnvja/8OqgWK9/DYaWJ7HRPFMlAmKKlLkso1SaArx5AX1hAufbYBp5ZWCW7FZPtcTMBvlsByrCWY4y95w8JKSywyuwcac2XXIeITUtbY2C1ISsuxI4j7mJsNg5eja9qChUQA0gWwgQRBGoyxGT7+utCtM2DY3f6FquyHTy/iUMyehz8Lh2tG3SxnAsqC2mtQt8EjE2WCPzEbLqgQdL3K9VGY58hnerDpWOlvSbBE8ckjZkgT9IzJZXx5EdJHgjGsMSLxOrbz2iAc6U6yisYaaf6gV/gLsnnFGF8s5/8K6x5AtFtAQFZfbYEfXXssThU9eTKG8G0E2qpEHhrh9+2ZtmRmlbGyitCK8awKs7kamFOtJbqwenVk8xMmRQSSMdHFEr4/O5YIWY9/azxvzscmV6OaYMvnVg6RL9lTypKjmsbhj3yRDWbUz3UboZceRsDOxmQEvr5mW8EiSXEEbXzvOI9VTqkfIEeRaWZrIoPH6ECPVgtlZV7Z3Enytb2o/8AhxVRUeyUi4dXOWmqHWyzRpFPiN653JHgMzVNuLVlqvmRU/tHY+HtZ6PGRc4i4wdGer2I9FFxBca1Gp6qvTO5udyZ3NzvbhmxWNgJkAc5WM1axeQo8zc4c+cUjG15apC22HhSsMRPbTM9qLz2w3PbDM9tMz24zPbjMiDNhc6rLa/20zPbTMcCUzPbDcVOi5W6vDLBZi1gALK2sJBuNbjCg9P2ylFjDH5a5zFzmOxCe3NgEiRmUg0Q+hTsOnNashdoos7ppg5IBagiRa/zyZyJc5EmeeTORJnnkxksj3+ORUVkna5r4888mciTPPLk8r3TIufiKPGNswv+85KpkK+5FJP0zkrhbEiLx38B3/od+Rf3M/Bq/EGrWxXTutfgmzHgVbbU5mNMJ6c4jOZPkOyWA8fyqyz5VZZ8qss+VWWfKrLPlVlnyqyz5Ofnyc/Pk9gmfKrLPldlnyuyz5RY9/1HucPOmszYevIrXAzRjgzBK2dsjfJhi9xuO/jA79Hux5Uy2Eh5Z8bfypbr/ZemsV+uFV3sml57LpeezaVns2lZ7LpWeyaVnsulZ7LpWey6Vns2lZ7LpWey6Vns2lZ7LpWey6XnsulZ7LpWey6VlqwaKzyL/cSwxzYOQRXumKiOYqSJhDu8nH/wArzDB4KAuTJ9dKrZvMxG92Wi/wBpgdMSdF8YMyXXy4nO1oxGO1wtIvi5mJrpa58dLybXC4YvjBmM1wtzna4W1V1otH/GC+kWulyx/GjFk+LmZJrRkbV18pEfrRjGJrBioRBILNH/AJ42yzoyTvZTQNmIj2cqBpBLiycf/AbZxn5LubGPAsY3NhaHHIlNXd+x10QwuVE3lDUQvulJnjIQOyXGgHudJXGx5GEbLMmuxKklSfEkVZYyY4WwbNw7LOFYqq1VgicOyzh2WMqj5cdSRxSzUjZMWsPY5aoluXEckdi6TxKFbmD142rleItR6YFv5GovV2L90GkTt7sbLOxlYa8U1bd7xZXeWbADPE1z39zoVdIwwuF0h5RL4DyhHk2BZU1FdTvIstjcETLtkivfYlkuhsDR85RXah5qQV9tNXzM24lkibE9Kgm5NOYFdkgNs756Q+4EdWPWV0qdWQEKiybGY580rnukIZ2xfw9JB0eqwSdUHXooucRMjiSP0khR+IMvXi5xEzipnFxoy4OvBIM/viUFzipjB1XOLnFzi5xExzJM4y9yi/ZgyrnETETp6PGRyqM/OM9cYMjf+mf/xAAvEQACAQMDAwMEAQQDAQAAAAAAAQIDERIQITETQVEEICIUMmGBUgUwQpEzYHEj/9oACAEDAQE/Af8Apmy5MomUTKJlEyiZRMol4mUTKJePsujMyXcTT491i2lmWZZ6WLe18kfTykrlnexgzH8/2I6N4iV92OwviNdy/Z6xpuZbpPc6n4M0Z7nUXg6i8HUXg6q8HUXgzXglK+qGR9TaNhyvLIzXg6n9iPfSVuNP/C7Pyc60pqPJOomzqxOrEVSJ1Y+Dqx8HViZZS2JNR5R1Ikpp6oeiV3Yxvexih++OkuTzqu/tWxkjITRnAyiZLsU5K5WkrWMkSeqGKG97li5fW3sdOSV2LSS7idi1tONtHpexz7m7IjJv3IYtjBR3WtiwptLFa4q9yVdyjYWj3RbS70SHu9XdLYTuOVtiO605FZ7FSODxQ1dWHDGKkc6rSCq9S7OULK+5khsyZmnyW0b3HZEeL6RdhxMTEURtJCd1trdGSfA1dWFHFWFdL5F78GKvcrJTldMsXtSs/JdPjVE5Yvg6l1ujORaU2YeDCKHZqxON90WlHcya5FUijqx8F7q+jvBl7GRkZFT7S6p7MW9mPKb2GmuUYsV3sjFrlGEvBi+RRcjpyFCXgxl4MZlteScN9jEsyzLMxZZlmWvydOPgjBW4JeCSb+1kKTqbPkVCb+7YnTcNhfkexH8DjHK+mJZlmYJcFmYlmWZiWZZlh86p2LouZGRkzJmTMjIyFRrSjnGOxGLm7I9P6OlKlefJVq9NKnTG5PlnJweipQrVLTP6h6eFCa6RlJfchO/YUrGRkZ3MjJmTMmZMyZkZP2JXLaQni72J1aTW6sxxys4jaUrab3PTr03SfU50o+sao42J+ojFY0/9ir1FsjGU92YmxsLZ3RN92Y57oW10mUXB7zRGlRmrxuSpO+LROjKklc9JTpzyc97HqqVOMVKmrFKNF0ryjuVIqMrFWjTjRUyEHUdkelpxqT+R6mjS6edNW990baXvySSTsil6GrVp9REIOcXFcooQTk8ux6macIwQoX3IwUTd8Cot8ioxR0ojo+CUHHk2JtX2N18iM3wU/UuldslUlV+TITlTeUSdWdV3mzJ8HJvpGTg7oqVp1vvft2XI5t8GL5EnIvKOzLp6L1s6EOmZPLJEZrHqv/xl+pJyYlbccilUxkSrxiP1Mux9TMj6lPkTUkVaVt4loyJR2sTjhLctZGSvbXg3Ny1i1917XxuXP/DfsWt8TYcbboTyVzqRa+aIunU+NrFV9KjKEu5RTvck7j30isnYqUJQ3WtOq6bItSV0VY4O5yQfV+EuCqlFRiWWly+t7Ddtznf2VPBZLYis2RpRjySpxmTp4CKfOkJLOx67dxZTso3Q+NaP/JpV9PfeI9tnp6adniVllEW+xTjjJFXd5D0XnSlSz3Y6EbFSDpuxZPZi2dvZU5L5bkHZ61ZdtNs9H8pWtuTyy+QuFYetD79alJVCUHB2ZDaSJcHcnL5bFN57d9HwdtKX26eptbS15D51mr7oexFpFy5KSekN530g1dXKyxlidlcetD79atZQJScndi2dz6iLWk7uexGPRTb5Yzk/GlKrjsx1olSebEri3l7Fui19FsN30x2sKKjHTsep4gyN8dzsKgrXOCh943bkq+ovtE51jzpH7rk4/FT0Q42Gr8a8lrEVbf2J2GtLFtEj7nZC9O+7QvTz/wAj1DU3ZEHi7MR1XBWFCU9xPFkqkp8+22KJOyP6d6eHqJt1GVLUJyjDdDhGccoaLcxaLltMfJJ39kYyy/AnY2ZijE2Q3cj/APOnl3Zl5YnsYfHJko2Lpux9xGpgrMSzkVIqPHsStuyUu47tlGH+iTP6fShVk1JnqKcaVRwiy3cUjJF0ZDlf20PT9aMpX4KNLrSxvYpU+pUwvYjTcqnTRWpulPBlal0na9yrS6ai78lej6demTT3Hj3KWMV8ipJz0uRlt+S6fJa26Hk+TFmBtEb8mW+xH0yj86hd1HYlyJtcG/ut7aPq6tCLhDgp1XSlkinUdOeaIVpU6nURX9RL1EspFWq6ruypWlVSUuxfsbd9FIVONsps6dGT+L/2VacqctxTFIUmZMc15M/BuynTtJMq7zPsjk/ZcaNtLlzb2wormQ6MWVIOD0jFzZGjEnQXYasbPk/BVfysWOadvA45bjVhxd9jpS5ZJWFDa1hQxZQj8rnUcUSm5O7JPgpRzlY6UbWJrCVjlaXKNNWuytTWOSFs/ZDdlT7GUasnsyurx0oLuVpOLVinPNblZWkU45SUWep9DRhSyj2Kt8simnLngc+UYoUPA/jwKrURiqivHktKIqjRG0aluzJJxlZjhl3GklZFKbjI66sTbm7lrLRqzKVW0bFSpdWI8+yHJllGxG0VsVJX0pSsO0ncckkTd2LkrTmvg2UozkvwSUafL/0KXUdoofTjtc6iStEvpS+65Cak8WSunZkvklJGcKqtPk6cI7uQmrjiYsUR76fcjBmDH8V7cvJeKG76K6LoyXbRcjo3nk/tJzc+BX/yOrhHFa9B+S6o8bsnVnNWIxxFVjL/AJEX9O/JUpY/KO61UjIctbmZkP8AsWHNtW0Sb0xZ8uCzLMxLMxZZlmWZizFlmUpOD/BOFpfExZiyzMJeyinKV+xkc+y9uDORnIzkZSL30X2aLcsY97lapJVHudaf8jrT/kdaf8jrT8nWn/I60/5MhUnJ2yMZ9plqj/z3HGUVdzOtP+R1p/yOtP8AkehnKVdXZYrq0tLlR9OCgtXoh86N2MmPkXOim0rGxsbFkS9LSk7s+jon0dE+jon0dE+jon0dE+jon0VE+ioo+jpH0dE+jon0dEpUKdGWUTryJSct3o3JcFSedn7UPRwSgm+WWS0XOtOMWtzp0zp0zp0zCmdOmdOmYUzCmYUzCmdOmYUzp0zCmYUzCmYUzCmStfb2bMtbZlvY7Icl2OopxS7ltFpYsvJ+z9n7P2beTbybeTbybeT9n7P2beT9m3k28l15NvJt512XOk3ZKx002caIlTe7OnIZkzNkXfSXJZeRQ2vcvE2LxLxP0fEvHsXj5Pj5Pj5LxPifHyfEy/BkmXiZRZ22ESoW+fYzR97vo9Xpt4LKS4MbM7aNd9L7WNvBZLsNJlkicVyhQvudIsl2LLwbeC0ebDWSHTR0/lYUUhxTIwu/kYrwSEcbHTifhFh86pmSMjIyG76JmRkZGRkZF77F7bGRkZGRkZGRcyMjIy1UjIyQ5f8ATP/EADIRAAEDAwMDBQABBAEEAwAAAAEAAgMEERITITEFEFEUICIyQWEVIzBCM0BgcaFSgZH/2gAIAQIBAT8B/wCzHOtws3rNyzes3rNyzes3rN6zes3rNyBv3k6jTx3GW4Q6tJqBzuPCj6wHO+TdlBXQznFp3/6Mp07WmyuLXReAs/y3+BnatqxSR5fqp6JlSNZ/6j0+EuuoqeOD6hT0LJTm3YqCsMEzopT8e75RFyripbsvTHyvTHytA4WuvTHyvTHyvSu8r0rv/kvTHyvSnyo4Sw3v7CnU13XCwAbitNaVt/8AA3tPEyQgvHCA/ET+BC4XKkhZKLOCh2YG+O1RC5+7VFBiw+SvTS+V6eTyjTvxsCvSy+V6eTyvTyeU5hZFZxTI3SfVy9PJ5UcT2G7j7D2ccRdahFrp0jmgmyG4v7x2eh2sgO0UWiLXv2CeLiwWk/ytJ/lGN+NrrSl8rSl8rSk8qZjixUsTmnMoxPvyo2Oad/a6w+V0JopDZrgsQi0FW7bexsrHHEHu8diFZHZAXKP+GrqPTRF66ZNUTyOdIdk54aLuUUrZm5s49pCcwPBaUzpTI3teHcK3a3YxtJyVlZFoKjpgx+V+/KI72TRb2Vb5mM/shU1UJiWHkKqrSwmOIbrpL3SRuc833TiQ0kKllmmuZW2XqaWd2iTcoFjG+FVwuqI8WFQNbRw4uPCp6mOpBMfsM0Yfpk7oZXRUfqo5TLM6zf5U3WI2j+0LlTVc1Q+5K16lrdnFU3WRxUBMlZIAWntVVE8E4sPiqmpbSszcqaf1DM8bdo5WyfQ9rK3Z7wxuRVLWNqi7HgdnODRdyHUqc5b8KLqdK522xKnjbPG7D9VPH6SFwablQVDoml9U5R1cMx+Dk6mpdXUdyqiiZWAOL7WUWjCzAOTizl/CpKiCW7ItreysqdCbLS38odbIFsN07qtU+5amQVVe75lP6VgWNvyo+l07Cbi6kpmPj0/xdRoQWh0QXo6iH5AEJlbV020m4/lN6zHj/cbun9XifsY7qln9RHljj2kbLQz5X5KabgFXV1ddVDzEMVBKzpwIO5KheZYw8iyqW1VbIQ0fEJ9DNEfkEaGcWBbyoRPlpRPT6Goj5C/plRyQmUcu77bBCjmqPlyU3plXjsVH02eQXARoKs/EgqKgqmPBjFimZYjPnu9gf9gq6iBkaWfqbTRNbjZAWFh7dk+Fkn2Cd02nx4VHRxsZ8moqtp55flC+ybTjTa6q3cEZWDhSzSHaMW/8qmmexlpzcp9XMyW2Px8qOeGclrDdPo4HyajhuuEGgDZEX5RFxZR0kMRu0d8QrAcf4dlLKIm5FXvv2MjQcSd1dX7XV0Z42uwuibblT1MrZLN4VVM6N4tuT+fwgx5ToCVFTvLbv2KqWujZspad8jBLELOTK+qpwNdmypq+SofbT2V1dPkEbcnKOZszcmK6urq6urq6v7Hvx/Flxt2cMtlJM2m+7lWUz6sNkiKNW2F7YZOe0/qtYaf1U3qNQafHaambnmXKo6jEODdM6jUuIaNyounVFRJnObKOPTaG9tlYFVEzKVmbk5n9RJmjBBCDZIMhG6yoqiepZvsnPkYd08MlYQeFFpgYx8BTve2wYoXvLi16e6TUs07KMlwJUcrnSFic4N5U73Mb8VE+XPGQ397+pQMdje5RmpZn7kXCG+4To2v3cEP5T6tjH4FF1jl+KRxtt+quxEb8zuo+n6+L7WCpaGKmOQ5TnhvKfWWPxCNTIf1CokH6m1jhyhJFOLEIAMGy6lVNleBF+Jolibqtcum1b5XGKbcqpDGMzebAKmlbLHkwWCc0OFimsDNgrfva7Ruo5WSi7CiL7FMjaz6+2pqo6VuTyqjqVRUH+3sEaCcR6rlBSSVROKZUVPT36bt1D1KCVmRNlyjSsldmrC1k/wCGzjtyqVgr5nSSfia0AWCJUzdQJkLnIU7f1aDE6nI4RBaVBUX+L0+CKTZzVWwN0g0C26nj0nuGVsv1U8doQx5yCdVQxPEP73fKf9URK/lBv4n0zNvxRSh3x9tY1j4SHmyqA0MaMrqnjibGNMKojfLGWsO6ggEEeIToI5HZvG6qoDStzZYhUVSKmIO/VjY7J4cz5A3VfK1sO/6ukRvyza7b9HY9ibC6ZK15t3fGHhEFpsoJcxunsDxunO13uY5vxTZ4oLMe5acbnalt+0jvwK2KO/PbhPka1x/LKN+bQfZ1d/1jVNRRiEB4unuEYTpidgmSFqjkDzZTMD4yHC66YGNn537GsjM2gOV1NoGK6YyMQ5x/qPeX6Ffqin/1cue1SzbJUz8ZE5uTS1MpXU0jGg7KrhjNpMLlN4CPCHPZ8gjQqDfdNIeMgpYRO3Epnw29nVP+e91S1LaltxyFIAW794Gtxv8AvYtArvj2mtNUWEZDlVMl1bTndU2Ok3Hj2S/Q945jGmkPFwpB8Cm7OHbqNWXTBkf4oyWxtc797Ffnaa+Z7Ut9+1VTvntiVx36hTOkIc0KKPSYGpzA8WKfAW7hRwl6bEI90XBgyKo2GepzPZw/Ryq3EGx5VIXGBpd7Jv8AjPeGnL93cIANFgnC4IXpnh3apc+St+PKH90gD872VlLDqbjlNp3HlMYIxYIBAe9zgxtyo3tkaHN47Twa8ZYqemZTNsO/VDpkOC6bq6P909jVOy4XO4U3/GUAXGwUVNju/wBs08cDcpCqOES1DpX8qN25b7CPYNvaCrdrINt2CcVqfwVqssupNY5gYT8lQ1DqeYMkO3HZ1KHOunSMi+K2cEyJkf193VJmMjDCL3VK9wBnHKjGrGHO5QcWmzv8kFNPFUuff4FX9myuj83W8KWoihIa82TbH5BTwskdsPkqyh0Qw33Kp6hhOhf5BAqWmLnXan2hZsoJDJz7a2r9LibXupi+aoBk2TWtgZptRVXI6NoLVE4vYHFXOVlf/DLLpuAUj9MXspH4Nysi8BuaZIJG5KN+oL2UcmZItwo5JjOQRsuotp3Y6xVLE6KANY66azAJzA/YhTOhiecSM7Kgm+OErvl2c0OFimMDBZva3aWojhBLyp+oPqZfh9UzpzXPyO6DRE2/fIdrXRF1yrgK4PtfC2Q3cnxh4sU9oe3FPjD24FRxCJuITG4CyZGGXI/e0lPFMQ6QXT3tibk7hRStlbkw3Cc4k2YE+jZnmW7qrgkik1Lqn6nNFZsm4/8Aaj6hE77bJtRG/wCrlrMAuXKTqNNHsXKbq00l9EWCDZal93bkqn6bouD7qMfFOOZxCJsnuc8owXRmdRgfo4QNxdNBHJU5yaWAqOBsbbBAFn1TJwXYO59stQ69mJtTICopRKLjs94YLlOqXk7KOqINnoG6mhbO3B6iibC3Bii+qIunRhzxdVfTtZ+TTZPY2M4fY/8ApTUrwWmNpF1H0qV/xcbKehdTvtyoaSMQYeVT0Agkz/8AxS/VFifJHALvNlJOHFrWb3UnwbdZu8pgzaCU3jsRupXEOxULyXYqTUp5w6/J9kpxYSof+QKogY0ZA2VISH27VbtwFSMD2kFTRiN1gVTEmPdPOLSVBUyPkxd+pvFkXWQjtZOaHCyjo4YDmFyiwFbt2dwvi5GMJ5JZ/wCEDluqqh9U4Eu2CLBSxacX2/FSyz1D3RSL0r72TWBjbBWsO1lNA5z7hQ05a65QG/sIy2Ra6F6cS83KposPk7tURZtuE1zmAtCZGXnZNZpjHsxrfsAnvaCgXO4Fl9eSrvKDb7uPeX62RFtx+K+W6G2ysW/VZOO1k2NrTf8AU1jWfUdrI+0+02PKDGjjuCEWtKFhx2Kz2sOUWuaw4cqh9SLifhVtX6a1hcqJxcwOPbMKxk54VRG7SOl9lR0jqa5c691gR9V/cTX32Pe6ur+y6v8A4hG1puOxcBytVtrrIK7VceVkPKfDDI8SP5Cyb5WTfKyHlZN8rJvlZt8rJvlZt8p+LxymvFt1k3ysm+Vk3ys2+e75CPqg6QuuUXOB2KZIT9vY/crFWVlZM8dpDeWyGI2sjYNuArj9Ca4E2xUw+f8Aguv5V7+wcHtTG8aKxvsm+VirIcdyFZVc5p2XAuUaqqe+2SYDgMk3sYmudkrN8K6usii1p5CwZ4WDPCwZ4WDfCwb4WDfCwb4WmzwsW+Fi3wsG+Fg3wsGeEWNItZeljTWhosO1c6rikBjPxUNXERi7Yqysh7LJ8YmBbwoemxwuzccj2HeZ0jT8VqTrUnWpP4WpP4WpOtSdak61J1qTrUnWrOtSdak/hak61J/C1J1qTrUnTL4gu9lRRRTjjdQa1E8RSm7ShVwH/cIEHcd5+oQQHElTdZYBaMKl6pFLYP2KuPYXgLUWoFqBZjwtUeFqBagK1AtRZrUC1AtVagWoFqDwtQLUCEi1O8lRFEbPdbt1R5bgG8p3SI5iJL2uooxCwRj87y9MlGUiZ0eR1iVPCQTZtrJ00xAGWy/qVWABdUFfLO7TkH/32ssgpJWxi5X9Vpv5TurwWOPKZ1aJ32FlJ1WENuzcodXnvuEzq0R+wITurQD63KHVIC3Ir+rU38r+rU38odZhvuCv6tTfyv6rTfyndXiH1BKd1aZ4IaLKHrEkYtKLpvV4SLkJvWGf7BQTNnZmzjtUUsUkuTzZO6y1ptgmatdOH229+hETfFVNKx7AALKKjZm4vCDWt+o9hAPKdSwvFsVHRwRi2Klo4JW44qKhgjbayr6FjGgxhU/TdZmR2TekAjcplJBGLBqfRwP/ANV6WC98AvRQZ54qqoY5mWYLFO6TGQLFf01pnwHCi6fBETtdVFBFJ8gOFS0Ac8mVlghSw8YoNDNm9nsbIMXBN6ZABuo42RDFoVvddXV1z3urq6urq6lZqsLFEzTYGK6uiVdXV1dbcq6urq/e6urq/wD2Z//EAEsQAAIBAgMDBgkKBAMHBQEAAAECAwARBBIhEzFBECIyUWFxFCMzNEKBkZPRBSBScpKUobHB0iRi4fA1Q1MwYHOys8LxFURUY4KD/9oACAEBAAY/Av8AczayyGGHcMouxrzvEe6X4153ifdr8a88xPul+NeeYj3S/GvPMT7pfjXnmJ90vxrzzE+6X4155iPdL8a88xHul+NeeYn3S/GjbGT37Yl+NGKS3Yy7jyxFcOVSTUO3AU0MUtsUbeOk1t6qBhxAmxH0SMorazw2TiynNb5u+ukK6QreK6QrpD210hXSHtrpD210hWhvyt3VEo3BQKE2ZUzC6qeNDDWyyF8nO4Glsy6s668Mu+pJPCYRGjZc2uul+r/YQHjmI5DHfJGou79VeCwMojhAUyvvOnUKYbaMp/rSbx6q/iZxiSNyxmwH40I47TwcFk9D41DicPFHHibXdI9A3cOWZkaOOBWttJBfXqqVsXDt45Y7RyR6A9deaye1a0wkntWsVj2wzFZkVALi4tXmj+1a80k9q15pJ7VrzST7S15pJ7VrzST2rUcEeHaNlkz5mI6jyt3UndSxyws0yDKMu414VptM+07L1EVw5jjRmeyyHNmPbU6Nh2yyH0JrejbXTX/YQfW/TkklEzRpJoVXiKORe5b7zW0xZGIlPBtUHYBV2jRG+lEuQ/hXg8r7TS6SHe3fTTYe6TC5FjoeynJCjOc4yG4seSbA4tX2WbaJJGl7dd6wUyxN4FgjcKy8577zr6q8xf3SV5i/uo6xONbBkxSxKirkW4IrzB/dpX+Hv7pK8wf3SVBi8H8nvLEI8rRBF6jqeHGlXGfI8kebots4yD671/h7+6Skgw+FMMgkDZiijSx6uVu6k7hW+o4c2XMd9YqbD7XJGOZtFsSf7/OsOiTTDaQmYlgNBr8KkVCSoNhf58P1v05Iqwmbo7T8cpty4T6W0/7TyOGCgx2j5vZySLnyPe++2lYWWYbdIzeUEZrj9a/wqL7nHX+Fxfc4qxGIk+TlbDuihI/B0sDx03V/hMf3OOv8Ii+5xVp8kx/c4qx11XCYTF22ZIChSOGm7fUXyfhZExUufaM8ZuEt20in5LjNh/8AEjqNMDg1w8oe5ZYETS27TlbupR/LWzbBR36IlVfVu66BMc0VvSeNl/GgxmkLA3uWpXSV1dRlUg7hRd2LMd5O88mYIxF7Xtx5d1DESwMkXX1VD9b9OTZ5t3CuabODmU9tZD4uYb4231mdgi9ZoTspSNRaMNvPbTMalffduTUVpp85Yc2RekzdQrCxQRqJM2p4kWoJGmZm0Crxp4ZRlkXfb5jd1RspswG+hZ+eCHHeDepsI+GCmRLE3uB21vrfWrgVo1LCklkV9oNONM7NdmNzW+ls/RuBp176OG2IQtbO999Q/W/TkIGnEVp0uqrSIGoMI+cNxYlre2rk2FG3QH4/MK42TZx5bjWwPrqORWD4eXyb319dRz4l8mHY2UKdXrDpCgjUQ7l7zSgtkBIGY8KRcNifCdDn42rwxIpIUAvtUYbvbTjnzP7TW2dC65Sum8dtbZE1xBsiX6uukSdQrMLizX5W7qEwiZoQNXFtLUcmUS5bxk9Imp2G8Q/GlgwUYxGKPRMXSv1k1491hT+TVj8KOSNZGbeZdWq5wsOY7yUFfwUu2QehK2vq0oq4KMDYhhyT+MyYpZDrfhYWuOqo0jsCy57tuAqPDmSOUjUlOHZyLtYzE5F1vxFc7Q9dAbS/fQ5ypWrZzSc0sToqjjWG2rAtKGuo9G1vjyBUBZjuAqAHD32w4eh9bqq7WnSMHLZ72HYKheXaKkb5jGb/AJVFLKGhw+iZrcL76ij+ScPJItiHc3yk95oeEYdo1bjvo4eJmeCxXoZtOqpUWAPtCDqcrbqknlibO54IaCYfPt1lLeL6Q0qObGyGYyjpk3t2HlbuoW+UgmHbpwAajsppI8aqod10vp7aG2llle2ViGtmrLBHlvwjFyaxZIEWUZo1Y6tS+MWC3FBe/toYlW2k2ty/GminnZg/ODu3HjRhLxTKRqm+9P4LIsD9G0R0Dd1ALLFIDptDzbeqkP8A6ksRC5eYCKWITpiDbMXSjWyy83KBmO9Wt+la79166VdL8K11ol7Ztmcl/wBKjlDJhYYcygvqWbjbs0qaESCYR6Z166id2UTyrctx1q8Thje1SET9BrNcUcVicKkhUalkuaKow0F7bqsJVHaQaSDMrSSC6g8RSRkJCl9EXTSszYdpCm6XZg/jWR5FzWuLAmlkWSJGbW9qlTEOs8Z9ACnaLyeY5b9XDl0don+kptWIEjGTY87Mx1NbV8RJtOzhRbNzjvJGtXLXPdWrD2Uwue+ucQR2irGx9VHZTNDrfmbqX+IFi4uAtc2eSNAuiq3fRbcOFOmMwaTgm4kMeYjsqSP5KDYeGQaoevs6qswWH/jNlq7kzkMOZhucCOOtbTBQ7CHdkxBsb0w8Jfw5d8GXj1W3+uleeF4M3RJpIUlCpbTm60a59yw09VXswPWNK6JDdY4VaWZ2XdlGgrnJm9VWyVzlZu83rQNViDauapFbvXRtfNQHLfcasKEQdQ5GmY2rea3mmkCuUXpNwFbzW81vNbzW80cXsHeAemKyouY9Qrb4pm25zX59tnY1MC5hgjFmlBtma/woMoCsy33En214qNvXTDnsnotuNJFIxj5hOpsX7L0+CeXaYYx5isjZsnZUngOM2Ut9EFinqFFvDw0oA8Vk1J9tX3VqaWOMFy25RvrZzK0b77Vv0rea3mt5rea3mt5rr+Y6tjMPg8ovfENa9YiXwvDjZG2TNzn+ryXyI/DK4uKcQYS0ijUo9k9hrF4fGJzGa1wMy6bxU2Nw5TZB2tF6WXkfwnN4Vc7r37LVivDmti9bXvfsy8gwgwTO8a7NZAeb2XoBl2Ed+fdue/wFSHPLDFvdVksp76WHBKJiNwG71mnayrmN9BVwWr0q3m4/Ctki3c6s/wCppMNi5I5IJL5So1HHWsI+MwbyKikNLntvIse2o0RpXzDyYO710xiaXaD/ACbAtUZF4sSuoBFCXFZs8nFqxMmIVpdioOyQ2JHE+qocRhUaJXbKAxvnH0qeWbDSGboIwfpseoUsS9JUG019PjWHxYHlM9hm52vRv3UVjtcAtqbbqdZgZAkZcRKbF+y9HFYOOSBVYKM58p/4+eJhGscRXMGkbhQdIsRHBOPQ1zeyrWtbhUiwSvGH6SqdDRCtnXg1rXrwuMJlOqoTzmp0VfHK2e3Ei2tSFxmWKMyZeu1YUxJzIl59vRvU8WdppQTbMu710I25qcQPSNCPDwvK38o3d/VV8fidm30YOHrNK3ghkI/1JCR7KynAJH2x800xwssmHbLzVY5lv69aMql9j/rwE29fVQZmZ5P5tb1I2NAGa2VL3IpsLNAsgK3YHWosRg1EcI5jAfgaCYdEkml0Bk4UUnl2slg2bvpZoXMci7iK2k8hkfrNBcxyjUC+gq7H20qZiR6K1s5kMb9RpZEbK6m4IpTiJTLl3X4fNyQjT0nO5a/iAMRL9KTd6hQhizCIcwSWsl+qlBDSsdyxrdjRn2bYea9i4GVvWKyqm3W1w6ci4NYo5Mic2U8L6is1+dvzUJ0TNLLeCRR6V9xqDDwWVmBJc8KyKSRff11ZdLdJ+qgoGWB9JOs9tZQdtJ9FPjXi0RB261rsz/8Amgs6GL+YairgrLG49RqTHfJ6eI3yQD0O1eyvFzuNOu9PI0jOTGc2Y1hs0KSGE3aKTiOBqV4EODlWTRY9y20NPjN8erFnfU8gVRdjoBQkxjsp37NDa3fTR4dFz8RGpkb1nWrYjD4lYv5kuPwojDYpZtAHin1I/vqoyr46D6Sjo9/zYpIY9q+7LbhUzmIQlrc02F+3T+9KaTFEyzBipF9F1sbdlQtsi8SHcovl6tKeaZDHK2mRt6r1Gpck7RLJqQvX30IcQJIm9F45Lg6a91NDvjPOQ9lWK5iBYMDY0IJoxCX0WVWO/toIosUdS4PAL/5rYvAwmbycn50NOe2gFLGvt6+SLDxW2kpyjNuHH9KEkjLiIfSkRcuTvF+W450R6SddLLGcyMKvCoXC4jnRjqPEUeBIy1AyTEz2JZD/AJf9DW1iwzMRcyZd4JN7eymg2rCHjHyDGSgGRtY7+iOuukUwfDLoZf6UEjQIo4LyZiMsg3SLowowYhlma5XTeR2ig0Xm0uqfy9nzJ59PoDs6/wA6knineNegMpvcCtmjZFXUsdazyNt2G7TSs3kpvpjdQcSCVeNhupZEcoyuOcO+xojKrIGBLHeNeQY5rLDpbrIvan5q5nijkLW1J1H6VssQytsRdcotvrNwRfz5fk/67f8ATbkbEfJ69rYf9vwohgVYb1YWI5HwrHR+cvfWJb08P48erf8Aheo5gLmNg1YpzEdqQqiL+UkfrWyOKGGR1aS7DVT1Cjzs383XUUR3O1jSYZdNqcp+rx/CrDdTttThsIDkzp02PZXiJsRBLwcylx6wakwuJttF1V13OvXW1iVDIPpcaDekEEl7cfmEZbc887rpMPoVy8xhxA66w5w53nK6nivHlRDzcMFutvSNEHUGpQwJyoyjuGgNddKxx0U2Dy/5iW9V71mwiZIdbBtKxJlIL5+BuKmPHNb8OX5O+u3/ACNy7RfE4obpBx7+upIJ1ySIfb21hSpsdoo/Gp4pFzxuhVlPEWod1bWdgdsg0vuX+zWJUWVOew9XJF3H8qi/4b/mtGvk8xEFdivt4/jyYDd4Rdu/Jb425NpJGzLdxdOHONL3cs8U0mQXzDMdKlmsFdmN6EuGRJeDI1Lh8TCcHOd2bcxpVEbYnENuiT9aXbYdMPELkC92o5PKHRO+tgmmcCMA8lnvsxziK5o00DWbQHibdorFCMALn4d1TJxuG5fk767f8jcrYfC2xGKGh+jH3/CnmmkMkrm5Y1DIdyOG076mkztcRlsmXXd7KXupDJzo2XOwNNmHjSmXL1A9dCoXvlXNqainzdDRu4/2ORonjbEYFiW5nTjPZ1is0a4iZj0UELLf1tanxeJ0dtFjB0Reqi3HcO+pFza5CPXQ5exqz71PSoMpuprJxJ5vfUm0baTk892NyauTYUsqLmRdynS/bS59FXco4cl+tbUUYkc0aDsY1s8KoSy88LoM16Q8GUrWYzO8xW68FvwplYWYGxr5N+u3/TammmdY4kFyzHQU8GDzYfDbjJud/gPx+YV4uQorZQJtHte16w+Fi0hK87Tq4e2idSWazH+a/Iasx13EddCOU8z0ZPjQINx1jku7WoOeaq9Ff1oRA3HH5nbQRqujZf1rLKPZWVBf61c9r9nCsqb63XY8Ks0sEbfReTWgxGzjG92OlPOsZeG2QndYCnlgRDMBtA1tWFXHSGooR5M86c0MeHfU2KAvxu3pHspWVngnia6sNCppPDMS06p0VsFF+vT5vN8nHoKeVJWhWNbFl3m/CvAnkKRpHtQoPOYkn+/XU+HhdZog2U5tQew91NJFdCurxE3sOscmZd1C+hq6kp9ViKsZnI7wPyq5OvWTc1ZKv6RqxFjy4WC38ZCqoOb1aHWr7jyagVoOS51NAro0lxfqAp2gw5lVOkRaipGWx3Gh41hAzi6D0uv8KnUgBUsVsOFHE5R4PIcwI4X4VnXoneK2coJyLzcu/uNeMPSOd7dVRiOUuXucp4D5mxh3cWqZFmERjUNqt70ywJJLcFmsu81t25uXUupsB3Vc7qmTEtoI9I72zX31iIIn2kaNYNUWK8KjeV3KHDeko665ulafhXGtdK6zTA6zCxRlOgppHOZ21J5cZKZNnsEzDm3zHqrZbZIeaTmekw20WPN6Z3UuFBViXyZt476kwzWJX0gN9CLbJPdQ2ZKw77ZJdqmeyejUGIim/iLDK2a+cneLVOcIokW3PDGwvw9dTSy4d0tYFFPEddKTZUAsFHClYMQw6jS5ts2F2gug3b62+Gw/8HkHPReb31niNLJbnjiptehJiJDmUZRdfhXlPwNcxC3fXONl6uFIkMZcubA8L99B52DYnpZvo/0ooQEtoCp1fttwpIi287huFLV93bXRNuu3JMmyik2gtmdble6pRso5M65fGLfL2jtoSbNJbejILijlF+xRTxbg28EfNeOAqFY31F620QUtbLzxelxMeUyC/SGleGJl2tydRprW3mCqwGUBaWWYKGVQnMFqw6SBQsC5Vyi1XtrTLDOYkY3IAFCONTI7cKKuhjkHoGhJPJs0PRUDnGlhXFSpCvoyLvH1loQGNMttY+khHZTSYdvBpfo+h7KyqFxJzZfF768ZBJH9ZTWQRSM+/KFJNAphGA630pfDJy7H0F5ooJFkhhTr3VMgjOrWVt4Zb0+UWz6g9lGRum+iX/OkhiW7sbAUCyiefi7C/soxr6r7qK8yHFveTMg06rVrvqLYYTwXKLN4wtmPXrXhICZIm3SbnNNJJs824bJbad9FcRGsgP0hTvC2bDi2884X+as3ymWZmF9gpy5e81kjw/gr8JIib/jWxm58baxyj0hyDDQWHFnO5RVp42xkn05HI/AU0nyZ4iYbona6GmR1KOpsVO8Vtocue1ufup5pmzOa7FVV/AVY6rTRqXUFhu6jvH5UYjC8gz3zA8KadrYVN4uLsR19lSiaeOdY36VxWeGPbX5ulXts3BysL1tmkG0jc7O40AvSwsMpvd+o91MBuSNm/ClWwbvFERo08nG1YmTEeLkjtHlPC/8AYqOJicpuat4NENLZsvO9tS4fU7M6G9ju/rRCCwZA36fpRNQRDgtJOVEuf6Q0GtPiUURmP6I0NYiORchRSwc9+nzMBE5IUyZtOwZv0rF/UpcLLE2LQf5vpL3mlmPTglGX16cmOxNznMgitwsBf/urBy4eQxuEO7voSTYcwN9Lg3dU+z/zVWUjtP8A4qKPNlDuFzdVzUk0F45Yl3lulRZ97a6Ve+VR0qewyjQKOoUpvuN62cjc36KC16u1h2LXi5CvYd1M0YyTqLlAdG7qAyFOrhRBtIh3q+tac2OVcuvDMKKlcrDQ1MogMjubhweypMXiVyx6Z3QaoKw2Lh2j8NmeII7auEn21vJbI7+/dUuIk0eQ3IHCpGHRUBRTd1IdbjQ1FDiZxEVYrzu+9NBhZNttDYlRpoa5wu+5fmR4iE5ZImDKa5j6SCzpfnLQjhURRrUXyfhXzxRNmkYcW6uSWLEnJhsQOn9E1DipPG7Mc3XSjNiZBGo3DiewViMbLoZG0HUOAo1spsVLMqgc1m0vajlyiK+u1NlvXPcTHhHA2ntrLHCkfZv/ABq15Je1N1ZIYmW+9jvNdE1uNRvuCHMx7KaF/JydG/onhWo5w33r1BSKG1uHGm1Gvtq+2V+yO96UdGNfQFKZmkke1szG9hXT/CikIIv6VdvIbaqeFc4lT2iubzz2VnbcOHV8y1ZsPKyfVNqyS4hit79X5V28gYoyjgxFZIMQwT6O8fjRkxMrOT1mrCjRc+QPO2nZUbTr4kEcwcFqLwHLfXNs91qlUybKEEZiN7abqlRTmVHZQevXk3x/bFeLKu/F94HdUPhjg4a92FrDdSZIMiL6ZFmNeORpCPTQ2atUxI7bqa2iOJYt2ccO8cOXTSulV955da6Van2VYfN31vFbxW8UMNiMUZYBay5R8OTxMLyC9syqbDvNPCIhmUXzE831GtYJeroGvNpvdtXm83umq64PEEdkLfCpYIsLiI45DcsIWzV5nifct8K8yxPuW+FeY4j3DfCvMsT7lvhXmWJ9y3wrzLE+5b4V5nifct8K8yxPuW+FX8CxBB0Zdi3OFMBhMSwG47FvhXmWJ9y3wrzPE+5b4UM2FxC3NheJq8yxPuW+FWOh6jyZ8bK6uwuEjNrd9CGGFDMBfasOcBrvNBTg4YnZOmiWYeutthZXkVemkmp9XzEkKK07i5Zhmt2a10Ifcp8K6EPuU+FdCH3KfCvJwj/+KfCvCY1COW54Xcb8eQNCoUvhi7EcWtrUjhpI4IjHs1jYeM1516ljfFNEgdzmLaC1FIsZJP4naqVvrrurbP8AKGuzz5M1zfTm7+0fjUJ2j7vpV5RvbXlG9teUf215V/tV5RvbXlX+1QG1YeuhbEEjNl6VaYhi+t1v1VzsQ3pWseqvKP8Aaryj/aryj+2sHd2P8THvP83I2yQIJIVkYAeldr/lWHvr4xfz5C8gvGAJLdd+j7OWdRuDmw5DUf1RybPabNQuZ36qzeDJJp031v66OToF2K919Kb6y/nyS/J8TJ4PJfpA3F+o3pv4mY5v/ubm1rIHPWwuTXST7P8AWt6fZpUR4wo06J+NeUj+yfjXlI/sn415SP7J+NeUj+yfjXlE+yfjXlI/sn4104vsn41vh+wfjW+H7J+NaNF9k/GvKR/ZPxrykf2T8a8pH9k/Go2zRExuHHNO8euv/a+7b91S4rENnmkOpqHLvzjfUiYzzlbliWIBHC1MVQzwbNLSpa1gKupuOzkn+tyHuqP6o5A8KbZF3xk2BA/resjxjCx+lZszGgBoKP1l/Plz/Kc6LisxusmI2dhwry8H38/ury8H34/ury8H34/urziD7+f3V5xB9+P7q84g+/n91eXg+/H91ecQffz+6vLwffz+6vOIPv5/dXl4Pv5/dXnEH38/urziD78f3V5eD7+f3V5xB9/P7q84g+/n91ecQffz+6vOIPvx/dWJTBNtMIH8W173HJD9cUM6BrddAwSFo/8ARY6W7OqpsRCjRzQjNMjcR8dKPiJ/dNUxHFuPI3dStDEMo0vKcv6UDMViW+qobtUsqjbw/wAurb+qgS4APbyH6y/nybRNmiHcZXyX7q8phPfirWgbmlubMPZRbNhTYXsJxWe+GPYJheunhPfih5vqbeWFHXD6EDywpnvh3twSYE108J78U4vhxlNtZhr3Uvm5ubaTCst8Nuvfbi1dPC+/FK/8OlxezTAEUV/htNb7YWrp4X34q98Mdbc2YGj5A24bSi2bCm3ATi9dPC+/FNFKuV1qH64o7GJ5rbytKw3EXrGZychjVCvXe9NFs9oVOUMTv141NK4Cszagcjd1QxbTcoGbctPlSZ7aXC800l8Q8hlUOAw3U7DDqrNoWHGmNpQp3ASGwovDPzLr4l9W39fJEi6ldD7a0bCZf+I1/wDlpoRFG7KVXSXfm3cK80j99/SgGijiHF8+a3qrmiKXX6eWlWSNYI785w+Y1dcXiPWR8K5uwxGnWU+NaxQxfWlv+lGMYeOSwvnWXT8q81i99/Sh/DRDt239KJHgzdmc/CvNIvff0rzSP339KOYwwevPf8qUyzzSJ9AWC/Gr4SfZD6Mi5hWXLDIv+pny/hXNlR9PS66cSgK2UaA3pGtezA2pFhj8IBuBk4E9dIPC4QQN2Q/Gmjz55SNTxZqF6f63Iaym2nCrWoKuJkUAWFuqizzSS3j9Nr8RWEjindHS+b9KTnNIw9JmvyZA2VxXnE3vDQfaNm+kW5woOMXLdTueQkUXfEyC/oo5AFB0nkfrWRrg0ZPCJYr+gj6CnixE9202elr9dNGg2py62bca8XEXW2hZra1mkxkqt9GNstHZ4uU5hbxjZqKeFz5T/PWx8KfJ1353trNLNNNGwsczE2prrmDdHnWIFRzOM8rHLYbuNIrSmLLxjYi9MhdpFcjxjv0KiGGxIlmvzmFGQ4qVb8M+6mcsz34sbmjWeNzHL2GjlZI+y1yKMsjljv1Ogq+a/ZQ6+W40Nddasa0Y3rpGtOS+41q1dM10jXSNdNq1aknBJy/CpZwSM5rVjXSNc4kV0zXTauma6RrIMxSulza6RrnG1bzy33Vob1rWuv8AuZ//xAApEAEAAgEDAwMEAwEBAAAAAAABABEhMUFRYXGBEJGhscHR8CDh8TBQ/9oACAEBAAE/If8Ay79L/jt/B/4X/wBshy2k3oLp19PJ/LIhOhUOHg9WicO2rxgTZCTKLHk9HEDM+wA5Ev8A2Ayo9FRzQrXMumQu8nR2hDYoY7q09NPRJqkS2gOs/wByf7k1WLm5/uemv9X1tj/cj1Auj66rqgYgEOCpeP7ljbtccwMryKzMNt6p0BTjrNc2m1ex/Mw9UV1yHSv69AzWKF04Orn2mtpimM0UbJmOobtE39MKeNYKb86fqGTneaO+ieS+Gd+J3Y9OrOa4ZLMnpcGwa2pgdPvGUAyCqjS76Wdocl2kwMEmc3mt8/aHpscQrHeP0OmFF0VsACiu8PT5SU9v9ILxaoDNL4+Zb9uNuX7RNaMctVK400gwo3I6pVdDMww/j5i3vfqm0reTWFWmdtX3jRcGDsvgLfEpUDPmJxjlLiYEgBBrTNIqvNuAVfdcLDLeU3o2U9O8PxUdAjQeikjSBt0AzxWIsQ2gLsNlFB6zl/V6z9w+8yC+Yg21dZs04lP7fzP2X7zj/d6x1syHNOtUwyu0ovOw6OpS+kzaH68xtInGQJ7j1+Qgav8AlM+mUroWHmMQzoGitHP7SFmCT0lN9bUSKtKW+0pzKczvlOZTmdSE939XojaXGc4c6QCvpFXY67ZZcHJDphgUIMPpYNJmLGhX3gSVaTRUI43YY+irjWuoo9W1eMkU19NiNlvSCh1184MA2b0xKw20n9DCtpX9RcYI29tQJu9aMNs3Ke3r89EKu0GO0D6QBZXBCWqyZJgUQHbIxFzwDbFAX2D2lrnZx4Dpljavtdp19A1BpCp4d5lUiPotJlnpHpisku2lmp5lndfV6a4kldW8WlTK4afjzM2SXijqcnUjI43KlykgqR1ZtjB5ikVRDEdVfg9NKmoPQB6VAKgimvpUbTQgLoljO9++yveo65VBlQE9GisyDr5/h8xKl0V4SvoeU4C/JN6W4zY/gcwxU0y69wSEiCclSu7JVuukRig3K+l0BAAjTQlfegL4ZwVjSeRPRkDjd9oGUG6apfUsydnaE2dQDss1Ewg3YHVc2vKDly+qSyS5zh2bQ/KMVkVZoM1xN1gNK68FwktcVSBkqaAWre01faqgZVZObcdJrAdDn20aTFz0rTVQum1rBWnY5WsPb5m23YLKAngX2jMpEWB29fnow2tdwDP0qAAp0D3urnXaaBaT3g/h3XtTszoxdw1W86Vs5iQjaJuItVzdo0qVKYEQgdhH1Sy/6BTpGLLbQ2e+Fr/MA23k2XvqQMZt7nWq94tLmNy9XxJBI0XTiGSO+qZmxDpv7xNXxXghtZaLVF5TA46jf0ItOh2rGgaQs7OHL6xWraHobJzwcR9cYNVjm/eV489i5lGOs4K1DujRKPrEm3EwHmtPMpAg500Ua0hKwIRmpxkx9YLHaQwcGkICoAuhFxmMkNyGyszpr9fX5iLb207ypvf7xVc1Ns7t0cEBpDwNCDjW02FW8WrVB3NucGnMILl7B7YxMt1TmrHSDh/ZR0Z8ezNfbV9BjTgGA7zewLbWsWvqx53nFCZBxYly4OiG7s5czIOSFbU93BXX7pfhErRLHHxlpI3l6yhWeSu891X4uZXBJtjAe53hsEXCh3HjSHeY+16qo0DTxCdksMZOjneEMTSCnjrptLU3yRDxmZrtZbfMuVIGQDxiKBOFUhcEcQUW9HW4OSlMQzqKZNTSb1xERs10etlX7ymJFvt7fWH43r6y7l49LM5xLan2W7ShiFboUtfE5qAXXZxElbKpZ6swAJwumPXG2pYjKCbKLaD9SAaLiHqYpSw60slEL0o6LL1mFuVYF1aeIRZsCFUv/Ymo4x8xN00OKCqM5VUBo0uxv75+JghhJusGtDXaOt5E8xCnH4jmhpF2mo1sjwrMGIFxRuujjzCj+q0TgY1DVTeYCzi+9MBHfGUt7k0UQABDRlBEIHITb5teiVfE2qVpVYNAdM4gzlO7n7xsTRSUTR54Al45it0C2MMbBiKhrr64B3ZfaDuMWlhwTW2ms+jYSXzRV4CXbpbP93+DuroLJkHtdKjXqnaMjtk7ZncJYzYKoxtebnkB8tjd1h7wHcFkt6tMELvgV7azropk5sZhMCLJjAN7rR+YfrP+7FXlEznOvSUtpoCxnQfmVOeXyXGw3mpXKpYbU2qY6Rag1f2jYgC1HHOIrR5v4oqr/uz/AFZfs9009cEiCT0mJb0VG9WsKyQdeY6TQH6EzHEFcC6XoeGFMyFqbCdGKsbfAN/T0DsZB0Yz2Vpr1iWMUBA40DXP7UwL13jfG0TivDX+5WuIHQJV0l7mNYwdVaKBYJqqZzyME9nriLdo5sO2kpy16EEGBMOio0RmRujdIgUS7l6qt5M1iH4ZzVZGOzWZeo1b6l88dJTZllk6jiyHVSWByVp1zGXjQUtrpsQ56DcB5dn1iwe4WzTnHb6QWlcUtYOgIszCi1sYYwulYrNqq0wG65hZJpRgLdZYJgAD2Nb8TMaEyW1oWzZ4f5LUSSKqGAmC3N/EBINoYE4smO0PHHRCUvovRmTANJjdphjirBOMVna2ZpKpmzA6iXUv2hXrSx8/ECZ0kIue+nuyoG5kU6iiK5/axjp+gmK3LTymXimK1V7hnwSihqpNje1QqQu7X3iYwud0zl7GAYLFZXtz5RQBJlKh0LYlSXh2lbhlGF4vrx2lT2Faz+pM2sfbwW77fSD4aoVK2HE/SGC5ivT7gOhtLs/8lZyEys1cq1jUTNWWW8HWPaSHosYERqwxg8KxB4Er1UFrRBds1srn+oTsmUzP4PmFFG5V1X7bR/53QDfHE5vckGcmuu5LL+LKb679IIlwfkGaJBYb1cwE6uBpvmIBMJ1nw2hcqHxG7FXjz8SkwZLKuVmmZ/SHWCOoYL1KTulxtXmnRO+iCOjguFWleT/UTGu7/afM8xRAY2d0HboKDyTbtpar2hdFdmNVdORSk+/vF45knGizX8MyeL7CMDyvSCYDMDJdue0NLi2G0C1Y5u1TUbjT6Sn6/E7INcWwCV8XReEvxDszYKjdNTDqPaELFy0nnTY410z636awpdTep10cQnCkNEXlo3rwl7UMzihXckWGQNOGQOGMKGVEFoHOVe9bS4vQXOAdmhGIERwdKezjzNJB8u47lRhqhgoaDz9YnzbeVtquSW+OFuM+WkUATTK1MW70a0jiLKRZmAyrduxRR868BS9hNbzhWh2irE5vX3lu/oPqo1cdR1gOL4/EyEIZ0q+Zvs9ItFr6q1mkFC2H9RnkSNSIajQlNVKaQsnniNdHzt6BxjQP5T9PMZOeqz3W31zSJcVHoQFai+CwlTxN0RHtvaOSNnIt3ecY9+n8KWipGTOF+6ntDINx4RS8FpqTAIuXO7yrK+mWWh7m8STSVYZdyPdLSoijQ7siNTosu2JjZ6fvMdJRyVC7Vk6RBaCdEYF8PmVeVi2zra8fEv1TuudH0YszCYHmKhogkTSLUudVerTh2iVdpBHCOnp4xd2pr8fSUFWmlrH7xzUQ2EB3piDVnlvpGdWe0sNT5LFZHSrvxNRuv5fMPQwybavwS8BXI2JfxV5gBgGAmeYuEs5lAO+dGPK7nykaJ2p6kLiqEZ2h44TZ8QfV26KU7hf+THZMWZ1uOuZfqSjOfDf9iiWAtlGaBhs5IDR4EXV3Kv13awdudV7cdYwMBSMzwV5uPsgYioW1qcf7aZMHqYySkOlgORjN56eJqHccRRQMIo6NulPyzNLiv1mQgAa+NGD2dzaYorINg2HRM/WakwnRo/DD8aDBFZNdzZ+kxKuEZEthgtjMXDX5qaUoOl1FZtyNE4mbwpG9Pzy9F/vEhfUY4p6Q3mcGw84z0nxXqMYWLFHjrMXJU2Nvinusx8RwKm1MEVJnriC+PeFHC9gcrYidrwbHEC+HcvSHqHkNjf4m0BYFTetL94S9+Sguj1BNEgZo0X83OF3uCvtM3pVzY09A1etvN1bvR5qMa278HAaBCLVkaqAyo0qSMVjq8w0XR9JlcHQc7Es42yW9IvDpHK/qlOk4lWANzd72RePSdsiLdLRwjttcP9L4q9ASqUmfG0HXdZWWdLytI+yUDy/ysFDSj1yHFccwaEHHMJaSxIArZMGk2I7REfUIFWZ7JEYA1XaATGidX4f7HCtu1j8u/oS5ovylFIZytCe4B4gavrBgLbtLUPZG/wBpZgNCrhqMvzL01A7MclwK0OCZgHMwc3XMf4gmjBD0e5vuxf2lydqgGPPch6CA7DmFOHK4YPKxhu4sp9EOa6zVcnAgwg6E26flB7OWJhlJVNfQ3exOXke3V1+kzGm1L9amtJZe5EeDWLmdS5aMdxLW/e+PaClU3V33jN9B+COrLWqRTqwwZYB0yU+mAf0I/PeHa51bINdXK+YHGmlw0HXJtBRjUwbkpFBbYHR0/dJnUVuU7x+qg2RMBE+ilPMtFG6Z5ClvfSHoomKFfkSvLuzAOEPkBNvpND7gxBz0ysXXjIq0eRWX0h0g+RB3O+YTeWl+ZWNuzf8AQQt3sPqAM3fN97jG6/evpEbF4qIwQDSOK9HSWlmgisOoEnyhjgrOppNmHaK0D5jr7foRyC9VoDrWuu6xyxUjBq922Wu3iqkYFVyr8e6qbQElBS9R9vmai7jjWw1C8aTXX2lgQrpeXQ27xW1Fzh118TlWSO19/b0tpnFoMqxHfbwe/TtFJmG7re5UHWWgttc6dPEOO04QQ0/W8FNNtzDMY4XFV1Yo05mprtXsNeLrxDwBhpLzzpjjeFk+xiGHlS3b3xb6kznkYoS/f29mX8xY3fUkTAcFS/R8y3xNlxjb96xSHJOiF+0WgHxyV4S+wCqQXRhhZythe37yTlR4z0P7swHTZC5m8xvppUX2T4ULhe2RpvE28bROOytMsKDYsX7awPJ3rlWzTqmb6QxoUtdRdm2Q8TPnHGsNFeiDhOJse0HGv1T934phWucCM10dj+0xt6WlS62aTUQAWjoPq5gF23h65Nb6zBKy/Cwa3Fw2kqNA0kulNbsq94OqfeS9F7M18fexb2I3CXXvcgqbV22qmPFFyGI/wsTi6ZqsfHtHaq6UKYcOBFmRUO2rUyMrx5hAEQaA/VhRMhQov8zgrR1jX2iI5JZuktbVapZEPhQdX95mZaj1YjHckPTglToAZYGmoHzOfjBRXUmTptpLeNoN3hjxD2hhbZeR0Nf1j8eGsCY2xoQ5qXwwsp+uO6ZrP7ZzLAqFvL1ZfQ15oMu1h8y1DobQWlRgeHkBv9pKzHaaIG5pQeA6HzK9jAA7NCuJc6yUXoMF6aPe+ZkQKCiQkEsL9HHYiZWoHodOxZnmtcykwyrFtdO72+sGO5LY++su1weNdy8fwBUKtdIS/GEdg2vavMY9KKe5GYiWdE+08k1h2pWd65+0DNmvsFQj6pLV0O7aYuPQALScJCuHVRdGUE1roAaB0jGs9sSQh/UJeyBeO0ndIawYratV65uFAnQqXU3Xyla6Q6Dc6Xt4gYJJwU46u0fvOTbNXh4lq0XQVHyTEm2aMTjV2ZXSs/Dr6w1FdxmqU0rdGh9AhiMQ1Uvvog5RJWGgiC8cAfkj8SOthYdStoC5WRzn7EojNFzJGEWbuq+9xE3aqmhGniDYYUqyhpOo2VRbQ9I6Dz63fgt2YHuIoI5/IlYiijhvVnJ843l6wjTe9j5+CEzzkbAQ97XtMtRrcUaeTEpDwr5Y19+cXNNhjKi4a+XmC2GvoBfzG9tWeZ5G984qY8Oo0OJygT4JrEQbacQihqA6Ybh7X/v3pLBaMEldO6tb7kHJQKqd38IYmHlmBtmoyj0W6WnB8syQGjhmj+YFaKd+XzKQKIqgIVf7rLfy7KrnEFd/E7CRg9H37gI8fGAB4AIGtUuavPus+cg24KgdGX+0Bd1bG2dYiOqlAWOXtUY511azvBj10OVQaToxDp3ywPtrNarX5Xd6sOjsjBgHbPv09KYqKtBML8kHUdRyvd31mP7VmWtDmEb4L/oG8ILpUpbRLUfgnICA+U79pTtXKJ7qUFw2Wu6otZG4h4XrLLQpd9LpKPwx1HtT2AUBrF1DVZ3XSIDNUNjK2OEHsPZiIYlCyOD9yDYPrF7hUPPA0Tr1lSY9lA6QK3tvFIHC2viOI6svpywS9GdqClmR2g1CmHTGkHqFzI7TNPu8/u51lw1sBCvXdCz1e8IrIagDHbvWSFWcGjxGLtd3e3EAMAQ2euI3XG18O0Ou1Sx6EtRxRypxEVmw98fMeyWFeoD8sTe6ewQMXEcjUPP5ovDgJ2dtXrK5QllaSWGuageWbSwdMbQOACgiHDeHvrLUfCh4lcjODSuNx6VcXtX+IcT2jWXc9aMLmfHuh8sVso/gGpqdJ7z/AHp/tQTPzSxZZR00yW9M8FsQboGIXWNvHe1GWPANXDf9pZgpu6xX7Ta/c7QUgZtBAsobJqQaxiUoqPRJstzAX2JFTU/hs3bNSQ63RwaRsxVqh6lzbSSFCtdAxrKeOZGBBpCkZ9YUAizD1Vr02j8NI+Irp30P6hJtCZVanKVVNaKetD37QfRaLxKAvFgOgMO/WVaSlMAQIpoFINqJNXQNm+PQNgyZbIu/HYlYKNJbLuoNpbHwqm3XEEHW1FEUz0h9pkBB0mqy/plMMp1Uf73P9PP9bP8AcT/Xz/cTNnYteu0HCi1FrKPZJWFA79Ya2rKEbVXMP75P9ZH+yw/J00dkStYdhiIFAsc0ZXCBpMUGiEbbBbCw9nzEGhKODtBLCoCgNa+fT4rCM/8AlK8w3bXDIcFXjNOdqgACcqLdStZZbCxpd4dKqGT9K+jXpFOZgBXsxDFqwfEJSc9cjlbjR95Cv535h1ZAegeU+nPmH0o4r9GRc+5BfCiLD2k4fRiymMvWQdqssg45GaORFHAHQMRG0GOizWHk32NnKjVVibkSLEFot9cXKheZYjSXH94PT56ftG0yhqE4xIhd9SOxLVXgVngdiUEUFAS0/wBK+piktzM0FllU3yvoQw+tKmA9IgCj/nQBQxUsUShgAAKIR7KQ+gG+5dl8Ho/1950Bat1Ai6htZPegTuBUZ88NFk7ds0oC1GPpAtVW4I6Gz6fIQLIixvg0LWdZVFNUR0XGesRvlrbt9BrnbEdKClAPot/Qw9Bt9UH3bam19GWQ+WQEGK92dJyoAF8R9UBd37Zgl6lNmR1W70xPv2e9zobxciN3Z2IND3fuEMRvkZgxetF1hbemIFv26l7L5mU6O0b+fNMBCwxQtvXej49JwWdFEMxt1AUNvxMKiu3XaW735KAZSOj1OR2Z+h5jqZtNHlSBpJC5ZOtvgL9+ZXc/h4EX1S4udNhg9PkIiaCw4EDFu8ui7AzRuZ06xqAK1hzsYIDa0XIZfSLGRrQp8ynM6rNBom4SkaDJgMuftLS9fFlSNlSWEqp9U/AOF294J4F+85TxqVbLj4mnH1wK2K30j+42tnmchpkgkeC8u+JYY/Sy3tFR/LAfTOrE/wALAKqLVtHWL2ALqd9PQE4c/jBiLKrL8D5lh+Ws72PqjvHWgZ2yPzMfI1kt1xa94upxfGr4laDy3XWXby4PTmfMJDMd2aovMaOpS+0w+CZiRlULRFFYOIC2qjPVlwNLehpclTBdsFbzPaKmVpSAnC6h3BBE/RmZKU/9tcLD6ygqcZhNS3TvmN5OYXEQjcUNKYj7ctnvmfb+1FmV2zVS+dPEV2xLIWG8VhueW0WGNnVwjEDW3lLDtEB/hog7EQYtiynUvRiRN7uz7uZQI3vN4xq8kEeyHxGEEKukCXep2Ruj8TMCOUd/EzLXktsL1N4fDYARK42/qC5SjUo7ZltsAKwR62pkgE66V9+SaOhVP1PzMrP2Sx4NpppwEKM6svrZDmgKFjZuOFR4I4X3z0oJp59FMnlJw5yOZWKms6tDlIUs13tL6BJpdWj7xGUkB7VLwzOkq0ge4fSmUjSCeXv6YJsA4No1qXJ3mfTPWCWq4IC5bpDNGCVEgVdIJwQYSx3iVp6f+L/xqB6lTX/vX8CMdPR/g+m/oZl5/ht67zf+PPoelXD02n//2gAMAwEAAgADAAAAEG232/32++32+3332+l++2/2+29+0u32++3+23263rjEXa80720yeIie+36oaO2EYiKBESQ6ZQDuk+E6Ty0rV6GhupBYos0zOx72cB0Ebl15gFTtm90xVz7frJjq9W03U920Do3yIb144IW65Zd2q33SiTUtrFK2rnskfdLu1cjGvK8Gwz7GXXxpqUm4BrKmNfvBGuP9p6jQa+MpBLzqhy5C42vIEZ/u0O7Rl9orA9gM+ShQpF/nFjksUFDuXTcJQZJJm9e8m9sW2TX/AHPxdRN9tuX4m9D2/rpbCXfUnYNL5c8jhth16G2sXzs15PqCDl54KqnpxiHPDt7DszI3lWNpi9Huc8KL4Y/mdVA9eQVAelclX4MIf/EjLuslfIaXz1VpCtjfzRUxBJLIcXKX5TIswTuXcooBXWVLmdlqA2R/vQDTQyWM9y2cPqJ0HxJ/d1GKrgEdUBsxctI6hNvPpuESEJlanQBKnaoj/QnDO4Vih3MyeZjJAXtor+62UT4pGcVcZpwqNvNLF1VB/nIFiJdg5GZN8eXP31+GC8wc9+UUVh8YDl4ryfvJDbl7LXt49DRa9v7aYaT4qSTpEh5Ya+BwWI2sx4M4X+qFjdrwNZAWHH1U++MP25zn+8PtstTtRhUYqMvOPIt38V4crL+aN29Iy1ZI7t9/v9vt5Jv7tvpN/wDT/b//APl/2323/wDd/vvtt/8A/8QAKREBAAICAgICAgICAgMAAAAAAQARITFBYRBRcZEggdHwUKGx8TBA4f/aAAgBAwEBPxD/AAV/4klwdDOlnSzpZ0s6WdLOtnSzpYepicmvKdiwy1iIZGJtX4UwF1Lepb1KZ0TonRKZb1Leoib8kWVziuGbwwb7r6he3Q8X+SaTwYtgj2QWs+pi19w1phhVUxGEzpipejK5SLOIAtX5iYaAKqPjYgy/uFcMxLG7ilGm4hvG+/8AwLSfECRGoZcQUj3MxpFpTqJqEEqDPqdMR4lq6h4ST4gLj4U64fQR8bE2fFBAbuEvQHcANH58oTbDVIMuKyLxHR4RQSLl4kS3bH0TrjMRrzF0Qqgp52PBsV+pbcvtZcbiq2y4JLDwyyUKxOfhhixmL+EBdEoHtKvEFUeBaRXb8isY2t4i3ucWfhsQXAK6hWaUSiF9RpLaYjltlQCjcuUnPwKGKGpaalm2dTPmPJ5dg2yj2QtGY21leoWLSomvTA4XESo0xFHEsFj52iFoOY3i3T6mAr3CE4n91KdZiruepYYODC8o5iAKwzItlFibgYcSwsmRaQiyVIgXcPAWQLN6i6FblGpZYrDplXlcHuMx36EAAHEREdVXkWkP3zmOJB1BG6b/AHqLEFd7glxcyUxDAMdRUGFfub2/iKQaaoe48HmC0l/U+MUwOZ7gTYsVKNy0Bg8IItVEg8ZgquLRHEKslBhjjEcdoXWFMUNPgaYjwsmBSYFBF5xR9UfJLipc5mCQWoy9HUqMoimnyajOQ42MsmWYrZMe4hcrI60zLLGdNQLHhMwQ90t7lGotLeDug7zM8PKxdmXckUYl9V+AFpaW5jvEcyiNsbe5edRMD9+39xzdEpmVDzKHHuaKXsOJiQv04e4gCL4jjcKLJ3/AJ8BaKEvzfq6nPOpdahXA/MurdH8RgiGHt8BVRiZX5/0iF9S9cQq9EpbvfKFXXcHL5gSo8GFZsEQb7Y3uBPqdpQVU/DEbW9YgbLMo7Q6jo2gwb+f1H+WeeT3FbuA3t6+OYWJrfzzBebvnOdT9sfqOQ2AtctcQKRV55+Ph/AxLgXEGrme6Ulu2ARF+bIoQDg9zAU2uo7Cw3UxVFX+2OzQmQgrRuZxzIVFeIbvUwRsgIxF5NQpBHOWYeIX27mVbuG0pJmMYUFsEbVxa06IZyQQ9JqPDdUfNRRuPQCBlmYAhIBruONw8Q1h+ZdYzBIs19mmF4yhaczKZdTFDbGuITLxMEalgMngVGkhIpzEbSzEoC5jsMxgWyzhcLvqIjMbK1Gj8SlxURCBdy6AhEIss53EwRTUQW3AoSrLE0zO82mLuCqviKoccwFRqJVvhTMA2EuJLBx6grQzCtMaFkoI6YZd3IZjZdZ8IMEwa5nz4FAjgSw08sVAJREdx6bqZRXMxpjC7uUbElMHcYQc4PapBVauX8GapVlMK+NgXyS5cvTLWOHuRcdqLb8BoVi36Qi5GIqhLwcRD4Id+a1YURiCXLiqRrJKpBmFhwEQlR5lDiR686fI2d+JTVHuC2MVItpxgFrgWs3mbYbRWABUuOn3Lg8L6mzy4MkCA4jGYWyRJMQQM2wWLzCbLZBVNocD4qaPHcHoy+BSo9GYbmLmKhtAV4Kr1NoYJAsV4pQAXcWziWIKGO3yINFcxKwxKsiZs6JRs5mAc+CF3UzC7SluuJsVrEVTBjAN+AFtbKhOT1NZYLT2REuR30xmLLNk3ocYZiA6QAolJUvwRvjLMkaSkmDcWtwA1A2xsprMJ+YOyge7xPSIAnpDU3pgiz4l3WJcbIZUUSvFQwXbOPtZqtGrqWT6Y+xps/iMQaY5BFO5Q4gLiAC40jyQCthcJYeChuXFRMA+iIIIgvETfFwQSPLCoOSACncwDqNl5itKVKleO0Ui48tjjZgXmUalbrGrq5caCFDKIbh4KhqNhBsuo58ssgGMb6lpRhdv/ABKaq3PEApm6uL2uudEo9wGK4Wl44mFM18y4CUTY4m5wGiJ7iC6KYiBYqVBdbUC3lOiCcrPul9qxFo4TNGODmBCweptIre8pZrxcJVyniWG2P4IRk3Hxit77lMi+9TmP/MxHEIEOkKxCGMKMSyekpaReWYs6lZSPRtiwqP8AXEFOQ6TmPVOT/cGrIjWfADcLdI2+2JtuUl0Vw6g3bHUyuYNai5i+SURVVE1DjARs0fhuVIB1UpT4rBAlO4gveIqYgVGNNQDrCJczKrlZDdGEqMsoKOYAUIRXW5QxhzMo/qbHgX/UKhB+ZYOU0OYJLU4SOxg0LAzUcmPrWsvsCRIpzErHkUjFVHqKVWQrXiamJh2UW0VCWoLihQjPC8vcss01EMPlAQNMfRDujmJfJnO/qKwUOOP1DJ1N9k7iCMB/zHW8lkcILldk1NpilzAGDkl4QLDDcQvLEfKqEWZhorp5JMs+VAkFSpWlHMquDvqYK/r+UCnn99y9az1qNI1fPMp7lkLU6MsRanUvsSTKWivqcAjT/McQPREOiLmtTqlbbHbxQUScQRzAUe/wFMkClQaEfw3UxLtxDELeWOgvuN8iuNJgGiF3Dj2Vz8TNFy4U3T7iOn7X1H99xr5zAwuTk3NLCObOz18+Lim58YiVL8CNQ6R9SJcv4blMCAy16lkOJuCWTHuUTTLHi6o22aln4GVceB9ErmSFrcJDI8VHEuwToiJhlQQ1llhaXG+JiHwFxantnfL9s7ocu4Qg69THEsqWegxoWg5Hv2ztfbO19sA5fbO39sA5fbP+wYTTL7ZcDaXW3+YAKW2LdkuD50vH75nY+3+Z2vth7H2/zLAXDzKeoGCDh8ECZS1+ZcuZU+NiLLwBurl+LqX8LUc8ZlUekqCL8m3udT9zqfudb9zqfudb9zqfufN9zrfuGhf3Pn+5833Op+51P3Mp7+fAhA5uMDqwXoQqpk3HUdHjYgzNbisbINvbN+K5csm87J2TsnfOydk753zunfOyd87Z3TunfO6d0IZr4OYKaiYH7lqNY6hbSRMB4NkSNsBpcX/A+oJxUaGbxgOWowYiioAiiLED+ABiMRRFcIo9J8Eslo8ItFeiJTDmKgKolRADMby6vcoAHjYgYDbSHLiqiu18d/JxvwG1wrgVHAlmn/UxzdwT2RDTcEdiemY8hf1MFsW//iX/ANUEzmD7f6n9Kl9mNNQkpIrm0gqpisG8QgFv2i60MLGFucfAwN2SuZdrRGgiqKXcBEuPFsXXEKqm5lik4EDUkD0FwADKZaoYZZrAi+WKtdJmgdBiYFMbIOJpy47dVCROJwggqiOmN24MAq7gFQHcd+VJmHJEep8Y9Yu3hSPqT4z4z4z4x6xpYKSmo54J8Yg0T4z4z4z4wFXKVqHWIOIviK+ECmUgGoqVH/0Lly/xv/Kf/8QAKxEBAAIBBAEDBQEBAQADAQAAAQARITFBUWEQcZGhIIGx0fDB4fEwQFBg/9oACAECAQE/EP8A+Md1nOgnSS7YnUTrJ1E6idRHiPmFWhC/IQTZ51ibEpxvw+I1KuerPsfnH06SyWTa5Z4slks8Wed4bbmE4hxy7vr5jRLLZUryn0LlsFrARyqWcHrBmYcQR3+cwT3Vb/qOUQ0Lt9+INl+DsMzWtJP4s/mxcT/uz+7P4s3o/u+Dru+gZmfMMwHSXBVt09oNAdP3KZUqBKlSpq8X6HRNMYI3DBu3EBYRAbP52YMxei3xQe1FBcAPHpObc5Jr8WszbuXAGPCzAH0BvEpjrSNENYlBhqOhSpUqVKlQ1GHJcOGV4Ym4VBUqyue/AKzGXCz+zKYQTl6z+LP4MH/6g0MprNO/XMtk+Uujx9F03AqqG/EtkLtc64BSYgAolS7VeZUqVNRqB4sphhmSF2oKVKAIhcf/AAjUW7HcU9jg2Fbx9oyagh9LX0gmZoEJUWlbuO5lEYAlvGdIAKPACnea6q081ulMLNI3VQS0Td6/QUbm/WAlWuS5IS1dAllA/wCISFoQyh7dxp/Zo8w1dD2mFn8M7TKy1JDqvO8wu449YXdgrEwIC3sq9iUBOzSXxlaViIRUPWVGo4pDH3zAht518ZXnRX6lV7vQi5o3i5mW+SmprEsCQOI2Wg1YDns5ly3FE2577+kCVsZarXmB1VFXj8whRbTJrC1HAVdRsEp/bzSI1618Sjg4aRjO1yn7l9Uub1TKT5NNL+gVSrps6YIWAznf2i4APS5kxg30rqU4nd1FTM0u/wBymysJVdTCG9ynaTcjZfZfJPWNShw1+Zo4bXUXIgdHwR1kxyXO9foAderzXENDHcbHfcyoWzrEtWUG3rKhTG+QH9tBFhbVDiP2zbXqxWkt9/8AYjIMCnMVRYGV/EM8I5q2aGP2PzFVgO8fqVxLeEFsF+vkOgSBTWiq0lDmvSGQUErziItSF6zVRiyUGorAW9agAAiwroKfeEo2Yf3zN9voQ7AI5wrjErkt1OJa59b5vSAxpqTKr6sQDAlCNQTQuCi0ZSPd3cLJ6wCwIEoVKZTpEqFxz5Go21lYFOoMA3lu8N0FoS3EtLYKWZgAMMWUQP8A90owZ1tum3vATFQBvLKmHBLyB/yPGB2xfczUA13+8KnK63oSxGVj0EtjZ4Xl5aWlpeWfoStJ9IoRbPillXpKlKnS8vxM44PRzudw3mwZ2uMC2KvTuPH/AN1uawOEzdbyxyKxWh6w8xNMZjZn82gCqgVmUHghpmgQ2OWYAAcuH0hpaWwrrJHCRDrz1XUABK5i9258ZnMsMF7v4+8dIaNtuvWFJNzjQ79dolOWvTacHP8AP3AL5VCTQtC3a4Sksbbevr9RmNjQao9a+Jmk59v8iBsRsCppEpYplWPvxKK2RCEeqrhWrSV3UchbC6jrJydvSZ9VAosh9QzeU0rcrSXhmOwOpczydCDHGaPz7czPeZF/ESo1QaQttT23lCbIVTREXGh1Myx39pTAkM0WSxpV/QtazVodDdlebxmueWI9bWt65m0A3ZbqlXWvzAFjpTzBMiWWuuTmekwBaAweIqONB1tBwUEpjryTViiEMrjtXMg7nBGd+/PrB6D9os1QVCKQGBsmse3A1d4DdWwaeGgthmhGOHtK8EmQpZonesDFhPN+KzLnvaJ2kW3UDGD8xXEEHT89yi8vxvCT3uwDZBXU1bHImiuIcMDCf20HY6GaHhqR4rRR9/1EgD/5LjnSO/AMtCKtDKrxWt5emEmL1EqIwZ9ogxTR2XruVIF1V9fiVNTy8IsAG95bUuUQXRNqlG3TPcNjX6FQbznpgC05yczETqoXTUw7kiqlMp1KWvQlgUZY28a89/EJS4FK/vVlGE3XnSaInnLVpbXuwws0lS0nU1iEcwGWrE95ckdq73LZRIYcVzKlRXXEwTBqiXrA7S2DsBPTx1vNXcFzQGPosDNgxx/7K2JRcezUqEWqAzDYqzfv4vAFwjxvp/s1EDjiEVapiyn7x0iSvGdXw1TkmyKAg8RqDki0ws238zWmB8zSaYGU3joPjMdv9lRU1A2wKB5uP7NawxNTWWIqG2WRPWiaktjRaCIc9K3+PGFOGVdzpd8Z6YguajoRleI6+MHVFZ8RTNyAnrGIDEIFdS+jqK8vUqtIly1V4FsIWoUeG9jMhHyZMSrlRhpk120C4SrV7yluXV80EFtPTH7ltrrcXxGt5iShcEOw+LQ+2HXM8cTavAQJiEI49hszzowLGK08GG4mZTklVKqBcHgeScDGhia6xKUwBRglBBesELdCZ5GOQhpLXipRrbYesThwbD/bzDMx0RQb/wAiPHIy4R5qBUqi4KNrA9bwurbXQUfxGB1SBs46Pi7mYgyiUGnh+jJ1a6+2NpaswzKlczDWLYLdsW1TpK2BuWkUDnjiZsK54GDtI/BASt5Y7XWKjsgaiVK8poJV6RejIDOKg3Iv3mBUCDf1h40sGVcc+FjLIpFuOYFY80mXbN+s7Szuet4zRtdQyd9pa4qamahb3mcI1gmA3iAMGy8MFN11YVSTuKpGqc3+iUrW9HXO0EcMdaEXBKlpVQIAhab+0phrRXPf9pArPR2/8jwlpvLvM6SLtWe87jYNzAzUSlR1DDIH6SwZISxVLAcTapGkRoRPsoqy4iNNZbGhB2yLii88ukQi33OeaZcSV0d7i4Jj7sau3SF2D9yNNK9SWltHbMAFZvv+sx3ZFYeFacMxD3lDoGsA2zCGiFdur33ifae78vcMhvLLJAVBdyIHW+WZJQxrPb6FDLDRWJbm9TfyAaOJKYWcwBZM/K6hcKCbzus2EaCJ/pEcgrSHCocaH8xCANC/uTqUcuJtv2qHiVUvmNy2HLP3lwBuhAc6SswTB43mn3lnOsz3BCLuBLPi+0rjECpu4ldgijj/AD6HE4lGyMLjh3lJb+GOjA9sxMmR+Ib4RQS0GGch8JQo2iBDWaxrvFL0cSoGeWF5M1uKoNrf9xNBuPyYTiWNyr8Sl2jV5qEOUcDzErEN60Tb0l3BzDW1MDw5xYdjCp1Uwr+gQreWutJrfYpQy6eE3kmHu9ZTxCEbeKtEZQm161hfvHWGNusMkoO4qyujSKcy7iLcpVNfVW8AAaMF17y/eRxB1K9suPK1ZfhF8TMIVvgLIYlTA+kHQmhot+FNDcXtMynj4tTUr9sqE6zMPcDsXUXre8O6z0P394HtKC+KsUy5ZrhvBCejuZhqS2an/sU26OHSAdxliunzaEKfIppO3it/Tjyx6WfGoqiYtBc3CyxLnW950ozghRmIaCdSdadSdSdCdSdCKrSzSICi51J1INoJ0pY5PC2EsRh2lnsjtD6LVbSkrKysavhQLmUrBW4B2YV2JmUPu42hDAqYlG0PNRKibpjQcJwExtGASv2Yqscr5mmUWUo2fSMYy/kly8NWhwf7HiYrobMOOqi/WGnwZepFNkAFBL8eBGyWdGdGdGdOdOdLwlIx1SdedOdOdGPDS/EHPBEuZqSqr8QS97VPMLFngKPKQtH62qh3LmPk6ojNcfGO8ek6n2l2z7EeV7Tte06viDbfE5z4nV8TqfadT7To+J1PtO17E6X2J/AnU+xOh9icZ8RPUPOdo7sHLvuUcYY7kw57kBEs8mVL1mLrSmF0Hslkrdb0ubl+DwzWX0geH2gxdMsaphdVvaHI9o7Q+0vZGCtAypimJNmGTDCi6faA4faINI+0pLp9pxKDbMFzTBcUxHD7QRLJvDwk6Gr8TWOEwbv/ACYSGT69RybBXnEOrpvrAkgPvCcQqs3r8x+KlVKgONcawNfc8Dw1zOQf77wBbVLpxEDX2QLBdllfMwzKuN4jt2BEPeFNVb6/ufhMuVoPsVCt5mqrMo1+ES/4iQCPSbd+yCb+yVx8ZBoW3LsmRftoMPqHipqMK7cTNj1YgbRXcFOeuHRuJQkMa/8AI3tA4HYhjB9BiXFli9YWeiOCUio1UNwB149YVUxuRHjBfRAJDXJMIDsIIrXlCY0+bmYNXuS+VZz6Smf7ymslcRQZnpKcO/j2ggAcEwUJLHGKzEAycxUoU0DWcAgGCCn2g1QHB4c2hhitsM0sVLfRcxUw0mWpLcRXV4GU4nonoluJ6J6JYBrLu2lpbiUaS/EtxPRL8TVhmGGk9HhfzY8KS/8A9Le//wBr/8QAJhABAQACAgICAgIDAQEAAAAAAREAITFBUWFxgZGhsdEQwfDh8f/aAAgBAQABPxA/wQw3kw4x0+TJzk8594PGfGv8P7zb6eMc5m/8c4c8zD+M85OP4x4PWLed4a7wN6xU08f4Gb/xxnPx7w+Mv/GLbHHmYe8dk6xhpzVe8pN76xaf4KEc/Jyi514Md5DHtlvrH8OE8ZpN5TOTXOB/Gd4bcmOj+sOHvI7/AFl3k6xLrOT+slsmccY6f6/xa8ZJv+P8Ll5UgouUQCwp30McN1+vF2Mut0fOK+0fjLwb/pxqsX2uKBucyPT9pgLs+rCzxObsXO+9WVPjANOqOndBnkQR0hjyecUKsPOcOwwIOsTTQY6fOLVl7bAGABCVdj1kSQinrWio53bHNqvpz6eYPSgcHLM6PGOmDrxjACXpZhhy4VLjDh+uG7j+OM240Qjil/h4S1+Jh/43N3+hjyH4395ecvxxiGFQHWfH7zYuJCaRNfDgAh1EAEDObCjUlSmvAfFmPKUWBDxCgPMHL0mYHXMlJoAr4w2iXDbUF6GNDY56JlecFd7zcujFneXrfOL3GGSJJOxNS+KH6ys64xXojUVgXGqLrZeMlNA6zgQ5EJukwRYFS6miCOCnUoo17XCB6gou4VQ6CtcM0TSpLK2vJAc1rp2TEc6UaE0U14xhJUo5N+cXPilQTpoIrSRpuqF4L+wOEpRtrhMFzkUmk5LlEEA2Lrpx4ZJbvvFv/FiPc8qodSkMk7b4wDMhDGNmMQ32nnWs8tONd4f+bpzeOh/TBQhGIia1QLCuSWCDVcK0TJe2peMT3rKuc6NEhORo623ZMxCluUmVeM4S9TFvOHvTONu824cel4yPL1jGecxb6GFMogiWO9FJHSJjWUDhaKRWqK2HozfiqzbHlAjVhrqgCFg56WDWls4oeMWCsABgQalXUojNONgC4VCpIXmBs5FxmzqdAiCSJEETjADkrkQbucdpQpQ03XZCnUHQFtRCASJd6CGo+XI25+8pDcC647jAVKzced9+GswYfC+McePhjQDshi4BuD2xXibQqE3VCMiKLp8bPE3NTIC1a6nWvRl7JkH85p/0ac2SfV6YMpQ6wq2s2QBUO2DDzl67BKzxAQAR2+zAKwqIBdKqugm8CO5aAZWk/DMJ/wBM5MA1gI/rkP8Azgv98IBWQwC6uToFSppet4QgR4UPyrx7zoTEJvrD2m+ju+D4kv1hOupeOcr4bMNkV0ohOCYQuUhOajAU5B4dXAehlsfBp4GIdx8ceBug9n9WcNyxi63S8hjedoVIdL48g76DBI/bFgYpNV83W5BBN5xGMEoJAE4OFhbLTwqdkAKq12c5fqVttHMJjrl0YHTxlQ8ecW75vxiBg08jTZl1ewMNQMgl5DeFyv6AfAiWTZtJvHjsYlAVtRPoHWczvVb7hp0DW3K2nfY5U7X3lJQwnT25HBZy8c5WATEeRyhiYABOkW83NXu+A1rxobQ5cg3MDvC/II1Aan6cEY1iA9D6dr0uMhlBo0Mh5OKGcr6xA2H8pj41iEAwXgDmKedRB3nlZoMgR7k5Qn9jlrxjYI8L1gvvgDAN5BHvNGEAJR94l1zh4Y61tmIrOhVAvbYzGpBkZxLtu/iXjCHFqUcAGNgGd1LBzofvEDnLNJiw1r1lS5/ocRmnIGOnesjE/pJoiahfvGEZYykXXED0FuBXsBzLMe1nwf1gIZ9Rzpy5UXNlV+RBVTZQY61iAmGAqVYE2rjzC/BhRVfACDwbs/qYrFVw0Frbo7Ya958c/lYtcckVr00BjJsVvdj68nvDom03PkNr2I5o5R5UFUPiXOQrzwMFL2gtdK+DwffxEw/YO8tPDlr8YoFACej2BUBzHeov1/YZmHkGiac4ozE1YNbAnlBk0pXLwI8/t9u3GnSdpK9Qa/HOBFKgeiQYPyB2cHk/NdLUZXs6Tt4xGs9zlqgwelvLsFJKSAe9hkYpgKegB3BoGF8V6y1BJGgNpm0553OHIvFxNJiuriX4cnsH5TXFo7BSXzqqTttnNKJDQWIiATFMF3eKIfvI+hmywqOxVNyABgWAOxoOEMNdeT3gaw7qg0qdcaDXxnP848xDTcALjBOGxJodItu6N85zthARipGpp4ermu3XzjWaA1RKGKOEbYG5YD/HCKzapAbd+M1pJJpBB03LQS85aW4XCcQMbHChH6aXczyBsA+ZldPoKR4qXIlsJoNfl+sCgV4x/qPrObp7lOg/avjxlyPlEUnk2uprV5w4wIv3LzAA3yn5yYJke1oWLNu5NtYr9atDoqIVPIGMo6WxVgTDfKzeawu8g2ImnNPA5dmuN4kWgK8WddZaDtmjtE3Q9NGuHHLJlU5VogUPBrByb5hHpNlCadOXIg6cMIHaAFdvbhsq3czAIiRc0qIjYoGxwBin28ZePWWT/wChxOCFhHjyQCk9LyroKcu0LFjtNvWPpEabdo7FWD94j50UJb3s1FdVODNfPKUhKvKgnh98zjBLdbUh4W1wyEIQWHUBLqE1g6AiEsorQig6wSYaiICNSiU4mnfWMDUMPHITkBKUPO86LWx5VG1QIm8AxypdraeZBhzODTigdbKMjVOjV3c1DlA96xwNoBCOjVjZThsuONCNNRl/XeIlAuh3/nAedfB/6wIk93gfWbKKBIlzfhb9FyBK9KDSiiAqqaTi/eYTiyby29jhy6rFEzKJBwO3K4vCUU0BdXQb43iEWWIR0pyrtZrF5K4rEVrTrrjF05AGNjqca44uADFVovfb3kTJwhKrqcDyi8YMrGyIV4Ybro47wBmRqlG8C7E+cjGFAA3ZKfWv3iWKlCrwIK86LhYeoO0kS0Ta0mnWEZ+o8nLZA7wCYKbAKwglSxC8af8ApjmblDqtvFzfeaklFrBYAK0orbnImyCmrDe8dtIMX4ax6YGmj5U5+MZlhl141N+9mGOKyyWc8TIgBonD9ZanEv6FDz49zJx1XFAA0ghvnlyUSuKUJ7KdsYfyzx3f1j0qEPQKNw0JfTvFJUwPGbIAJuGtQOIEfDgJrn6OUR/40C4HR4Te9VMxQ8qjLYgVOU1KXiS19QQhoB4Im8Q32tApNio8Q+slRpSvVU8cpZTHBVDaqr2vbgE0mhAnS0AE9YBuAGUk2g9pMMowm1DRG3Uxny+fL5C9vfGDpKaQf5YEfBof8TGF1FdFwJob4Mm9Ka36qpxncgST4uFSuqML+cTJaASeXfODCIdAa9+JnRprrls/eJ84x9TCn0I4fnEA0YxieHKxdK11DVVoTgd6wJRVFSgox3N5FyfCf1l2JN1UAasec1Hd4H9Zouz5P6y7s3wJf4z5b5P6y1H0qf1hODynnAWTdQhHenFcw5sngPWM6JeEOqkApG/ExRTxbfhBaoE1FGUnI6BpCqu15e95I2LsETkE1xqnzkLFSDgERQGg9+O0PMbqICCAKQXXQEmfEQVUW6IE+SQGYzYTBAENPDBfrFC+Ro1iKQoUYG1xFuO68v3nK4eFnvGEQxIkpdSJV6HGtvF1WBSIx4ese5FdGzBvP8n9YSP5j+s0z9h/WA93yn9Y8er4f1j8B6f1gk2OLIe+MINX6xvGzHBBhpnWVFU5x/Ag5bZ8qqmsGAxbHUcEPzE7EbCbJz7fOJUuUMCiRqozBcXGFGxmLdAIPdJiCkQWFtOhGavRtUMAS2mBKTBARIBtMOzXSGHhWaM9YtrR3zwxlRJGPM3gqBgqhsN6QxbODg8aFJBo9I6EUjKrLo0ErcDycm3uGHLwOBUJBUlu1ouOgWplog6N5O+e6r/WUGVYh/BgwsSaqcokR3ipYEQOCFXkhuqGE8bRBTcbYUNmucGzLAA4DVsjpX74onzUZEfYjtvgwSu4CeqBbmFPHlW6x9U5DYET3g9BrNRDi0KEhmkQzVkkCgVB3Byg6aWfupsJWlA7dRMfkWSOFo7k0xljiFAmncA+nU8jjrCANZGwUEHag8yBSM2zYgsOMLzrKWAJDyL9CuOQOyKaUldV7Dkcd8uLveO/rN8GXkv5wAqmsM7eFghEoSUOVmrqTBD0lRKjkSYIbWWiKHYnnJjrNAkUHpfziWnYSgbWqbp9YT37aO2aGiQX0RwjleMk+aF8gsxkRvdEG9ClcVYbdVbsRJRXjwYQuGwkSKKOkqcIuE3MLnkHavCECd+cZihd6SujnaDTmm0ne05Uoj0N24MUpK9hUtzeNPGA0xv2XVxm+M96yu3eIN2BwQygQjtRDyPsnBbhWZBK3RWrt1854qdSQnCrQHVbHJw7QSQwmk1+WOsPDLPyMG1a07WjdOPE4S1EBuiFfw8YuRKM0ZIQI6CcY4LlXsHSI6CaRI4hYkQDwBAegDFndb7GWiCw2eMqIXO3Tyq8uWKdQBSnmU451gwQmdhRop0/h8OIu8qDaJ94uoQABlgAWF1uYx5z7xNY4AHazBbroRLKe3lBtn3mnTD4CaVQfKmxU1ibPx4ooyuggrQOJ8ilOSo1F2s8DYZfEJASVFK7URo7HFrWiwBoIhAvC0SXYETsSjhSY2BGCyaPerw0UL4sN2U4bvIiKtqoZQXQCi94sPYnsyoqyVgdtZZZi1roo23lX7wm2mqUL0dqaPtyt91KA7MhfShCAre4A6f/AICvrHo/ykfdD9YQgw1lLspiDujUlXacHGBG0QgS4R9Oxwoh3/omXt7BOmJWCPRbYUOjq5SRkdf6JQeKxZRqxzOw5CKShrNEvgi1BnoAAvNwcsziaJW4s2jrWpiEDZLhIY0RMADlVxQekso1FqTmSu7ipoMY9kHoEczvEI4XGda16TT1gyvK4jRFNnJjUNvw5ggCNpVaGDglT5xbuzOnedenN9rDQ8ihAKH1OFwNawSu2SnYoU5DAb0fDoKPY8ks2ZY2dNpedMCAMUZq4GedY4uSXoBHkhyEtCBi05BLh453hYBjD5AFVM9EoymHaZawGvOo+YPecOOEumigDQgR3i7Sm9iBYR0pEvWEH0W1hHnSeYvGB6EnQCwaNgdl7mqi8Tirqz8+gyldo235fl6646yW/GBONraCYl5UKApbiJZbTKAhC4WE4c4JIEeEw+BhxPW0PwB6fp1l8gudPKOkaJ5MOCS6nFKrAR0CHgBQRQRRuvWs0MDEhs15scwWZMbUBrpfVZUPI8JhQU4tUp7Js1qrqrhrx4yuYQgcoeg7vkg1cBopbICivJdgEbtCUE3Q0Nrwe1flXvAHcc7tY8qOncUKNHsTLOTEaIBqwUKZxZhhEFYF1k1SF6jlZ/OHeawFv30RULwAcPxeTGgCNEmyd4nIgqoRXZaCvlVyfILeF2q8471rY5U6RTE1rlZ3zoy9TFrPFF7xjbsi0wBE/wC0zXlyzUEzdoKpr4YHpcOG30JKQ0Ld8mamaiGTwI4dKu81HJKIEoRYDmciXIfYvnaIJ0bveJ9MJXIu6TgyYCImnBdaroEuWxqBzwdM8p5mDbBekws5yzQC9ILUrag1kek1j2A3kqdKMB4+vUrH1Qw0xCHUigpRdpR3u5fVZKmwHCRd+uFX21lK1Xm7e2/Oecyga0abKh94Q26G0AIMqF6TxyA6Fh4A4ydQ+qbbW8DuQmnDTewM9CKsUoCFMeuQMcIXlRpUPCkIhE7nIFgiia8NXLKWWDAEURozq4CCIiUTjFmDWdeMD6g71e9NYbPAGjFXzyAmYB4Kjt1xhCF+WwfRAH5O8Y7w5bwNw1KuRngwPk7MiH49EcA+sAG2LLKRt5MlQCKl9YH4kLQsOkUQk4mpkUl0RXNUCeXKYqpsXKhDcBk1OIcYZg+4wgflPvNrOLreaj/fndGUT3gwroCvBSNQXRy6atFHu885iFiDAIhurQgdIt+UPvAJxjQBDwin3gQNZleW4usdBoTwxnTiHfFvhshFoOhlUd29uUo+MkIminDWzIi+Fkgq2JJ8YkgVao7P2fdw6XWFpxxLVPbyDOZguXAjGKtGopBfod4l1V/1mPHvOzOhyOWUrdSvr7xBc5nuJLxQp2jvAX6yKUYuNlfMMOPsuZhEE2AGqx1ctttu6gkF5Jpr+cplEBj3U0RbJUNGPvpZxTId6586hvNpxXvUCPkra5eD941m3VIwDpB/DHBaKrWgXToHmsW4Mx1xSr+zAIkpOkH9L/OeVzgDrOc+XPg/wtKlhk5LiYUp27XG4K5dF0tDgAwAimClAVC68450uYUSuy4DVU3jtaQsFUvvtPZBooeWrjCDTSQaOUGOd+OGdG4fxiN5ZTQSr6qY9WiARmXzyF5j3FwM5uGu18pBqNi2FJqawrYNCVBQpoLV3ockZxk0aGVLoFXwADvlL5ZAfb/OBSNhUrs7tX3ghEAT4MmHG8AtZizvgfrFREGvaE4pfs+s6sSnT/T6xBS9Hb3HIe8P9VAUFAGiA1PBgLHq4YqIVGhGormjXGwXF/P265ze3G3jgzXzjjaY+QP8ZQK1vJR9xQ8oN43jNuIMAF0qck8bmwUNlHP+H3j2f5DToIClm3jFaBKiDET5MhZ5M+af6cYSg4QVVcCiNCdKhyoeOXPJfAvHva+27uBclS8/rNRoAuh2r6j/ADiWC2DCFVhz+TOYZVAKjwJbSameZJXGy9dG81wAzWoCPpH/AFnIsFgh2yd3+cNtk2G7AhUDQPUdybAPIQg8InJhsjv1k3IO+zmuRdnHnBAaKBV+Ohge3bp9kL+0aB4kwgxB+cdNxlFDEJQpPTyPGauVB6npP1lq1QBTXoeJecg72XFGo2omm3kxuZSMS8q1wkojRYJwnC75a8eM6vFtRfHvA6wYL8AHLnTn0avAggfvKtIgSdoF2PGaWxRB0BUqg3B3BWQWIbqQp0i1U4yc6S5CXhxwm1nBrQKiSaSGuQdGtYbQfC+NIPWN/FbDRR5qAREJvKhAMjEQhLQ1ykrcsd6wRzvOUoE5dTKI7oB0i92E+PeFfwYlViwS27Ksl4AEyy6zgNqNgRdXMMukCCiCN+Wd0/MkDLTpTR7JkJHf1nCtro49PrLlxBpq+nFOSoSvTBp+TAxBEUfgn0mI3qRcr7FeD8YAKrovl8MTO1RK7ePm4z7QakdJ1jzlVjArnaSbGh1BejQ8GxOWO/TlKhHyrJNHyC/vF79M4WiO/GQyfUvB8GINUpEB6kBfAznInf26kQEiOhxquQbwSJ024iy0Ao7ZwAiKswEpXFlBrLowk03mjwB1eYwAkUcB4V7VwGwfD49PWDbUMa3uRF1wQeWUTiaeoQEDvYL5wnDOJAg6c3S4AHF+8fjrBQu0EA9uP17iyew/s9/HL77hgwVGiG984tyQkrVHIJNcGHK2titbtmhqpm3ByVQFwpvF8KaOSUSBTTjvATxqKFiTSpN8+WHdgUgI2mo6cN4w3LbU/OClWcB/vErVvN5/vDKQ3l1xwIj9XxicRNkiJrlk6d4ktEYFPRr8ZvjP2eM+c36AlI6cV01hQloQo4eXv4F1gmj60cBxboeaYE8o211vPa+MTEsUJCF63O9jvKXXuUu/vV9iauSJklvB+9l1sOsLR4PGq4BVoMb3V5jiALT0rZJsl6yDlwUNLqcL0MTWbX6rryqbXNgbCpvDRGijpm8lPQoAUALei+E1jeV4rAbEECXm01Fg0Ki9D2cOPOSVEyPnKbND6mMZyAst6Jyud49byFPlLPxbcYovUX8H+2K3LTESSIgWWwygea4DY2qJo62utYQ11Ol3HC1TWcKzJDwmgd2DtC7avOGGolTtTnB0lqX2MAs/SUc3ST3gCIjwmflLN7nHPzvgx/y98Q0h07+Mp4h2HE5Cy03yGO+sQC3wWGG3giN1EuzZmzd/OcGjE/OBesUX0TS3V8C3dj3XuLk6RWUbrz67xMfrZjLQk0siTB/HUz6MJBrhJjFAijq9qu02947mrddCiu6u8ochWMi7tdOIc624IA5GuW4wrQUI0BwmK1ptV5VXQcqmG1cFTIYDBRIyfD66ypeyR3KKHRXv84yWZvEE7FDjhziubUuoYTdxzoNY4oMacxaEiDpm2pixYjUUaQHBsvjwwc3EF1UIpGxkdzWbAt6ajSLKm53hYeWxRZ3G7slg4i0xNReASa/JfBikaWRfBTtO+5mhxB9knWitbEwbsSzeCcuDWuG4nweXK+bjWztXxkFlGgvt6AKvQLgKfJvYDQnjtpXQEpWRE0KD0BDrLoMKBj5G6zzs7Y1Z4JkUf2ZTnN42/k9G8FO5YlDc2Amj4IAybtZVuzZ0GkD2wE4QQGpDpucPRgMY8SkFAAqh5tE1cs41/iv3gpSIAqvQYYU+mvc6paQNnljuQjbfsAeRL4TnKY4L52bOvXJKRTHQ95a04cXvBduhyutbTeXLup0CGw3XRvAi4SVal3C5RU4MdPBMlijYjqYLipi0KII9HfWc1agQml0D7xqemzwtPVXPBhp+jz95HlukcuDQQhq37LorQBU2oI64dbwpciCCu1hYJBz4yXXP+gegQrQbWkwEwdhVzMFeq8aeqFrOQS4cw3gefGRmzbdCkVhW+JiRIRhvjSZTZ4mGSqk5Rg9X9MjLCs+c38fOKvp3SGiuugGjxibQEZcLDk5BRjNbzkgCcUwWx4/eCXgRbUtmx5uRnNs0+62AyDvrNkOnwppvw3244yn2+Md1klBTSuql94EkjKmpRz2W8awBrDgJx4EvXu3NAWBbdECkhsnhqgi6AMzjjHWEUujBO6B0ie4vHOO4IAjs92BE5akLQgt8pKlaxoVmjQHUslam8OUy6l+pDYS1SrwJN2qkDitC4SKPODmAJC92lJosTStpuVMQcJQctrWrGZBwEKO/gr6wBmQoKAOlVUbhxrLkZgkODV8SJ1MFPXkNVrPbwHdMSuGOAuhnLu3y4/cPdSApdlCmT9oLIXhir6KGeDumAnnzN+sgGGjLdi6b9PvLSqGwkWb0W7040YO20631JrEF1AZHpdn05XhvKeRPYAXxglr08QYma5pIJgT4CBHtxjpuwMEM7ZZWUYOyC9Q6ATNqBWjxgrZ2Kz4Ub9PvAvUR1AfyV3cvLm3KhbKb+g9TLgbf9DkDgzUQHt14weT6Fq0hCIqbJ8pljlnNEopCW1nCiGhCiQkeHIBY+s4kgZxnOrgWzilVpQR54TNcc8B6IuTaI0xR1gIKsPMNr3A2i69YtqLo3EOzm6UezIa5wxsTlVwlRCB2jHp8tnQ8qGkJI09U0eI2Nsk5CgdHjDwUTnOKAXQMba94yEvXxq4vNfbwhFRhg4iokT2nGzp/LJ0R3F+doPOq76wzPFXEHL+g8kPlmeCup3wgo9wwjNGlT4AD45zuB8LAlH8rDGp/BNwLxsEndmREGhW1S8FQfNxg44zZckxFbtO2IReQhenDnOVx8ctnBunIzByObL0ehfFbLxkD3q5b7Uu1Ta/UNYvINZ3tjqjrDNeK7Pxxm88Q5HgdXzhIzSPWS/jjJfX04PSPSefWAdC2xPyDc2qBYgfayfvJ7IptVsPb2/4bWZ5x6ICPpj15lKqWaIQI35fOKlWeSIsDYW24UpkjwD0YNTrHT5KpFlSNMuwQUEREm6uhvnF48S3tWDgVdGisMHiKBilClwPjKJJ0FG0crIeVxvTYNYonram3frCEXuVENqFLjkTsmCWaMqgVCERbyadyVUCqukhsDgMASiwsMjWF10PZgiaNh9Y08yIdZoD/AFw0JsTHnjvC5c0yYoqHTy1B1MD+g2SSJidsLMpxuvnQvxTHjLiuodvwWj05ycZAnJixSdG8UbL/AL7waouI0fBhAJic45NPD2fGCbQeDcsPpCYCEGcZ3MnXB84DQHlZn/w2I/yTlu765cEvjjOkBITNcoeVyF5M0VQ5VOQDEVeDeAywZcTR7thxHE6NFVIqDz0LroXAHQXUeU1vvDgVw60WFw+TbAYKbBOgp5PPvCkohcnDtfWBZVr27cAgGeMLbxXBHtwaMRq6feBPvinvLO/Y9IYhVoPPD7Tn2OJ3kwK8mnnAB3iXaVbpYHLiTh8kj84T25wExEdiJEeM9FagBVfB7ymmFhFjPuUelWxaPrY9RKoly75pxf6NIFZmVdp9YleiAAhYxAVDIJrxlNhT1nN2Yb/AV+s54MIVDkQlRXtAwAoXyYefP4yx0a4T0Q0HBk0eNw7RqWAgBGymx7wWJ3R7CKh0vAHWaaPGetbDopFDQ8O5cY8H2AQS9XEmBy4Y9r2p8TWXkyMMbBE2BCIkAYUSgqbo95B/2fnAHf8Aze86f+P5w4eDr/1x8K+T+7E3/l/OOA9hM0Yd9sL1bjlEUcJwb3u68FzUBBUpItCQtP8A45VEgBx40bfreHLL/nzm83Tz/ZnhH/XnFsPSS+9whqfnI+j5I1BsKXaqrvC9qRCjoxMvBZuuAXjnpw7oJq817bKgEkxQIINFNyG94EoAGgND0GJvD6d36wfFfD65q38cLhfIXkeIrap0NwbGkUkowum7iJDioJj8V6mEJbfeErP1jEXIzMKhdpYK/GPVNn5Vmxps8cZDcwchyi1e1xoFANCsxVHZ2ZULHLiCdZu9mGT+THamBh2cIpjWCN8pkc22Leu1zhW5aqDJQsyEkHymWMn7ypuXHu/CnDsdaFkfZizej5chhMmIAC6AAqw2rVRB2rBmKCX4pjFTcQrSQIgqI22s2Bt9NIjQIGj3gBLUlaGO/SJgLdfvCFu3zgx6nrH/ANnTkS/6jG1v3l7gUHRfY6hsmsQ26V0WgAxRefExEIoKABAPX+KIDS9YOvGanOotEdzuNC6hEqx8OL6WM3nKecwhmktHe8zs6cUmWExWzef9RkE4+vCgdmXwr9+KvN9eOUj8pi/OTG6jxmPPvN8c007xGdBF2BbbifeQT/ic8qNKPhcF5tewFEpAEOTc+KUq1klo0FHMArrCsaagJVoyTAxLAe1ACfeDzcGxP/g4yXO3Y1sbPSj4x9lpCN0mD8HHh4taaa2QCBTuxpfGaZmfHAvOE95JYV1rLlhiach3bDVDkc4FL/1xi1L3frEMl7HaPjFWBKuRYdn1kGZ3x6Jt9Zejgsh/rAJ0fQsnBpcHunnB/wDVY55KbdR8Z9dXTOO13k9PuL/WVyjdtUE8C+ROsTOiwH1BwXynnH8iBACFDVWh4HxhcxF5T9TD0Atv3SGk7Mpezq1k7E5HVPOfW/8AXGIQMQxUqBwdvRl4swPRClFC7+8mMvrhLB2+sIA16p/jNgkxQ6fpRDSInOczfxeuVaPIJ2kRdOhXTlONYoxKfzkfC3G0FN0KEe/rNHC9lwvNASD7xPuEigILzxnHOJt1/qcgn0VdVLo/jKKDfRMTknenDjbGpA4QLmkVkN+Sn2ZWqj6UNZI+CKAEKb8rtdzWDZm7VJaou0R4YhwtnzhvHQXmlim/LAKY1MK7KB+8XrWd57XcERanvKlH5yHk+EX3TZPHCW74y1Kk7GwLBkoWLpTHeOBAp3kalbi2accvldidA6eQmKAt6TDA1yJ+OOGUEd5oXk1z5wde7aykpqNkkibxkL8GVgjSChWUbIcw3rCefBEwsLIvG9Zqdj8c6LcetXvG0tLy/LQ0+yr1NonBnAAigB5mq+tYlQioHtaAAFA9N62lMoAJ9ix4rjneOCCwUShrgt7FGtoPXxOCpwPHjEJU4GUBlwvtHsTTVnR4QedWlrwEAPC/MMF6Ph+DiXR0HbvHRGIeeCr7uE+a/pxq4IOqfphRatOEd+2GABsUU4DxhBnkYuAKA+cnapGvOC8zRwgrMiVWChPkJ9GcdSrAa7J7bDPbHTSjpTSJeeePWJTbWgH1vCiObkLt62/1MOtoiseDGnLKRb6CGldXbyuXz4LMhR2vXMYG4mRIABArpV8uEKLVUGqEQVH+82+oEvXySbhvfvGcu0LntReE+HDZHRVFOG887fesYbCYBmlTRz7yvC0qX1I4OH/eO9EB0beWy/rXGV54Zo32FlfJ4iFK9JM2kRaFb5mFOpsj6FWmtm+cPmBDEeOTABo73m7uZ42h1EgTh85ZQMsqoqlKatxGVmsVVO2/ZvWpif5FwDtVZvWbic0c02Yw/h3NjQibDhx8IQONStoN3yMxutP5wHp+maUvS/bql8bxYVqzyq24uJTHDFdgo/WM4F4ZT846KeU1iI7hVNd8YEAqziayrFXaauBq5Jgv+nGtfWCq+cj033izR+MAyN41gmj7HLk3Bd1jIOqiFmdzbCWZCTQBfWs4EvzP3gxa3vjN0igvcvyr7jh4g+cQbEdKmXa6TwazYrt1l8zjt/LhtsHJB9fjE9GTi4sUuFr94WQxqtGEzAIBnKYtJdcL5yqoctmNQj5dsOtDhcZITxnKZt9Yt+cN7ePOdzxiazWvzmz8Zz/WOznOaDgjhHE53/iQx0T+c6YH+NayHP1gbZH4zrxMDJeuco+sY5P+MXPeDcQb/vH8Yb54xPeAvF7yQuLN5bfXGds0LmlfWcvzmi5cXaYkZghhzM6Hkx2DmwHzjw48zrnElyb+rj+2XFZk4esW4eHBv4x0nvFmHC8ZdOcphvHY4NGJAweXvP/Z;imageBackground=light-dark(default, #1d2e3e);" vertex="1" parent="1">
          <mxGeometry x="260" y="40" width="294" height="300" as="geometry" />
        </mxCell>
        <mxCell id="C7TibH1BOBcT31BDN6Mo-36" style="edgeStyle=orthogonalEdgeStyle;rounded=0;orthogonalLoop=1;jettySize=auto;html=1;entryX=0.5;entryY=0;entryDx=0;entryDy=0;fontFamily=Helvetica;fontSize=12;fontColor=default;exitX=0.25;exitY=0;exitDx=0;exitDy=0;labelBackgroundColor=none;" edge="1" parent="1" source="C7TibH1BOBcT31BDN6Mo-1" target="C7TibH1BOBcT31BDN6Mo-6">
          <mxGeometry relative="1" as="geometry">
            <Array as="points">
              <mxPoint x="410" y="240" />
              <mxPoint x="410" y="190" />
              <mxPoint x="130" y="190" />
            </Array>
          </mxGeometry>
        </mxCell>
        <mxCell id="C7TibH1BOBcT31BDN6Mo-37" style="edgeStyle=orthogonalEdgeStyle;rounded=0;orthogonalLoop=1;jettySize=auto;html=1;entryX=0.5;entryY=0;entryDx=0;entryDy=0;fontFamily=Helvetica;fontSize=12;fontColor=default;labelBackgroundColor=none;" edge="1" parent="1" source="C7TibH1BOBcT31BDN6Mo-1" target="C7TibH1BOBcT31BDN6Mo-14">
          <mxGeometry relative="1" as="geometry" />
        </mxCell>
        <mxCell id="C7TibH1BOBcT31BDN6Mo-38" style="edgeStyle=orthogonalEdgeStyle;rounded=0;orthogonalLoop=1;jettySize=auto;html=1;exitX=0.25;exitY=1;exitDx=0;exitDy=0;entryX=0.5;entryY=0;entryDx=0;entryDy=0;fontFamily=Helvetica;fontSize=12;fontColor=default;labelBackgroundColor=none;" edge="1" parent="1" source="C7TibH1BOBcT31BDN6Mo-1" target="C7TibH1BOBcT31BDN6Mo-25">
          <mxGeometry relative="1" as="geometry" />
        </mxCell>
        <mxCell id="C7TibH1BOBcT31BDN6Mo-39" style="edgeStyle=orthogonalEdgeStyle;rounded=0;orthogonalLoop=1;jettySize=auto;html=1;exitX=0.75;exitY=1;exitDx=0;exitDy=0;fontFamily=Helvetica;fontSize=12;fontColor=default;labelBackgroundColor=none;" edge="1" parent="1" source="C7TibH1BOBcT31BDN6Mo-1" target="C7TibH1BOBcT31BDN6Mo-32">
          <mxGeometry relative="1" as="geometry" />
        </mxCell>
        <mxCell id="C7TibH1BOBcT31BDN6Mo-40" style="edgeStyle=orthogonalEdgeStyle;rounded=0;orthogonalLoop=1;jettySize=auto;html=1;entryX=0.5;entryY=0;entryDx=0;entryDy=0;fontFamily=Helvetica;fontSize=12;fontColor=default;labelBackgroundColor=none;" edge="1" parent="1" source="C7TibH1BOBcT31BDN6Mo-1" target="C7TibH1BOBcT31BDN6Mo-17">
          <mxGeometry relative="1" as="geometry" />
        </mxCell>
        <mxCell id="C7TibH1BOBcT31BDN6Mo-46" style="edgeStyle=orthogonalEdgeStyle;rounded=0;orthogonalLoop=1;jettySize=auto;html=1;entryX=0.5;entryY=0;entryDx=0;entryDy=0;fontFamily=Helvetica;fontSize=12;fontColor=default;labelBackgroundColor=none;" edge="1" parent="1" source="C7TibH1BOBcT31BDN6Mo-1" target="C7TibH1BOBcT31BDN6Mo-19">
          <mxGeometry relative="1" as="geometry" />
        </mxCell>
        <mxCell id="C7TibH1BOBcT31BDN6Mo-1" value="MOSSY-MUSIC&lt;div&gt;PLAYER&lt;/div&gt;" style="rounded=0;whiteSpace=wrap;html=1;labelBackgroundColor=none;" vertex="1" parent="1">
          <mxGeometry x="350" y="240" width="130" height="60" as="geometry" />
        </mxCell>
        <mxCell id="C7TibH1BOBcT31BDN6Mo-21" value="" style="group;labelBackgroundColor=none;" vertex="1" connectable="0" parent="1">
          <mxGeometry x="120" y="500" width="120" height="140" as="geometry" />
        </mxCell>
        <mxCell id="C7TibH1BOBcT31BDN6Mo-14" value="Select Playlist" style="rounded=0;whiteSpace=wrap;html=1;labelBackgroundColor=none;" vertex="1" parent="C7TibH1BOBcT31BDN6Mo-21">
          <mxGeometry x="-30" width="120" height="60" as="geometry" />
        </mxCell>
        <mxCell id="C7TibH1BOBcT31BDN6Mo-15" value="&lt;p style=&quot;margin-top: 0px;&quot;&gt;&lt;font style=&quot;font-size: 10px;&quot;&gt;Choose a custom playlist from a scrollable list.&lt;/font&gt;&lt;/p&gt;" style="text;html=1;whiteSpace=wrap;overflow=hidden;rounded=0;labelBackgroundColor=none;" vertex="1" parent="C7TibH1BOBcT31BDN6Mo-21">
          <mxGeometry x="-30" y="70" width="120" height="70" as="geometry" />
        </mxCell>
        <mxCell id="C7TibH1BOBcT31BDN6Mo-29" style="edgeStyle=orthogonalEdgeStyle;rounded=0;orthogonalLoop=1;jettySize=auto;html=1;exitX=0.75;exitY=1;exitDx=0;exitDy=0;entryX=0.5;entryY=1;entryDx=0;entryDy=0;fontFamily=Helvetica;fontSize=12;fontColor=default;labelBackgroundColor=none;" edge="1" parent="C7TibH1BOBcT31BDN6Mo-21" source="C7TibH1BOBcT31BDN6Mo-14" target="C7TibH1BOBcT31BDN6Mo-14">
          <mxGeometry relative="1" as="geometry" />
        </mxCell>
        <mxCell id="C7TibH1BOBcT31BDN6Mo-22" value="" style="group;labelBackgroundColor=none;" vertex="1" connectable="0" parent="1">
          <mxGeometry x="70" y="320" width="120" height="140" as="geometry" />
        </mxCell>
        <mxCell id="C7TibH1BOBcT31BDN6Mo-6" value="Play/Pause Music" style="rounded=0;whiteSpace=wrap;html=1;labelBackgroundColor=none;" vertex="1" parent="C7TibH1BOBcT31BDN6Mo-22">
          <mxGeometry width="120" height="60" as="geometry" />
        </mxCell>
        <mxCell id="C7TibH1BOBcT31BDN6Mo-11" value="&lt;p style=&quot;margin-top: 0px;&quot;&gt;&lt;font style=&quot;font-size: 10px;&quot;&gt;Toggle playback using the mossy rock-shaped buttons.&lt;/font&gt;&lt;/p&gt;" style="text;html=1;whiteSpace=wrap;overflow=hidden;rounded=0;labelBackgroundColor=none;" vertex="1" parent="C7TibH1BOBcT31BDN6Mo-22">
          <mxGeometry y="70" width="120" height="70" as="geometry" />
        </mxCell>
        <mxCell id="C7TibH1BOBcT31BDN6Mo-24" value="" style="group;labelBackgroundColor=none;" vertex="1" connectable="0" parent="1">
          <mxGeometry x="650" y="310" width="180" height="320" as="geometry" />
        </mxCell>
        <mxCell id="C7TibH1BOBcT31BDN6Mo-19" value="Track Progress" style="rounded=0;whiteSpace=wrap;html=1;labelBackgroundColor=none;" vertex="1" parent="C7TibH1BOBcT31BDN6Mo-24">
          <mxGeometry x="40" y="40" width="120" height="60" as="geometry" />
        </mxCell>
        <mxCell id="C7TibH1BOBcT31BDN6Mo-23" value="" style="group;labelBackgroundColor=none;" vertex="1" connectable="0" parent="C7TibH1BOBcT31BDN6Mo-24">
          <mxGeometry x="-70" y="170" width="120" height="150" as="geometry" />
        </mxCell>
        <mxCell id="C7TibH1BOBcT31BDN6Mo-17" value="Adjust Volume" style="rounded=0;whiteSpace=wrap;html=1;labelBackgroundColor=none;" vertex="1" parent="C7TibH1BOBcT31BDN6Mo-23">
          <mxGeometry width="120" height="60" as="geometry" />
        </mxCell>
        <mxCell id="C7TibH1BOBcT31BDN6Mo-18" value="&lt;p style=&quot;margin-top: 0px;&quot;&gt;Slide the vine-wrapped volume control to change levels.&lt;/p&gt;" style="text;html=1;whiteSpace=wrap;overflow=hidden;rounded=0;labelBackgroundColor=none;" vertex="1" parent="C7TibH1BOBcT31BDN6Mo-23">
          <mxGeometry y="80" width="120" height="70" as="geometry" />
        </mxCell>
        <mxCell id="C7TibH1BOBcT31BDN6Mo-20" value="&lt;p style=&quot;margin-top: 0px;&quot;&gt;View and scrub through the song timeline using the twig-like progress bar.&lt;/p&gt;" style="text;html=1;whiteSpace=wrap;overflow=hidden;rounded=0;labelBackgroundColor=none;" vertex="1" parent="C7TibH1BOBcT31BDN6Mo-24">
          <mxGeometry x="60" y="110" width="120" height="130" as="geometry" />
        </mxCell>
        <mxCell id="C7TibH1BOBcT31BDN6Mo-30" value="" style="group;labelBackgroundColor=none;" vertex="1" connectable="0" parent="1">
          <mxGeometry x="270" y="500" width="120" height="170" as="geometry" />
        </mxCell>
        <mxCell id="C7TibH1BOBcT31BDN6Mo-25" value="Skip/Replay Track" style="rounded=0;whiteSpace=wrap;html=1;labelBackgroundColor=none;" vertex="1" parent="C7TibH1BOBcT31BDN6Mo-30">
          <mxGeometry width="120" height="60" as="geometry" />
        </mxCell>
        <mxCell id="C7TibH1BOBcT31BDN6Mo-27" value="Use wooden arrow buttons for forward/rewind functions." style="text;html=1;align=center;verticalAlign=middle;whiteSpace=wrap;rounded=0;fontFamily=Helvetica;fontSize=12;labelBackgroundColor=none;" vertex="1" parent="C7TibH1BOBcT31BDN6Mo-30">
          <mxGeometry x="7" y="80" width="100" height="90" as="geometry" />
        </mxCell>
        <mxCell id="C7TibH1BOBcT31BDN6Mo-31" value="" style="group;labelBackgroundColor=none;" vertex="1" connectable="0" parent="1">
          <mxGeometry x="425" y="500" width="120" height="170" as="geometry" />
        </mxCell>
        <mxCell id="C7TibH1BOBcT31BDN6Mo-32" value="Repeat" style="rounded=0;whiteSpace=wrap;html=1;labelBackgroundColor=none;" vertex="1" parent="C7TibH1BOBcT31BDN6Mo-31">
          <mxGeometry width="120" height="60" as="geometry" />
        </mxCell>
        <mxCell id="C7TibH1BOBcT31BDN6Mo-33" value="Choose songs and playlist you want to repeat." style="text;html=1;align=center;verticalAlign=middle;whiteSpace=wrap;rounded=0;fontFamily=Helvetica;fontSize=12;labelBackgroundColor=none;" vertex="1" parent="C7TibH1BOBcT31BDN6Mo-31">
          <mxGeometry x="7" y="80" width="100" height="90" as="geometry" />
        </mxCell>
        <mxCell id="C7TibH1BOBcT31BDN6Mo-34" value="&lt;p style=&quot;margin-top: 0px;&quot;&gt;&lt;/p&gt;&lt;h2&gt;Future UI Customization:&lt;/h2&gt;&lt;font style=&quot;&quot;&gt;&lt;div style=&quot;text-align: justify;&quot;&gt;&lt;strong style=&quot;background-color: transparent; color: light-dark(rgb(0, 0, 0), rgb(255, 255, 255));&quot;&gt;&lt;font style=&quot;font-size: 18px;&quot;&gt;Theme&lt;/font&gt;&lt;span style=&quot;font-size: 18px;&quot;&gt; Selection:&lt;/span&gt;&lt;/strong&gt;&lt;span style=&quot;background-color: transparent; color: light-dark(rgb(0, 0, 0), rgb(255, 255, 255)); font-size: 18px;&quot;&gt; Modify the moss texture or adjust neon-glow levels (Summer, Autunm &amp;amp; Spring &amp;amp; Winter .&lt;/span&gt;&lt;strong style=&quot;background-color: transparent; color: light-dark(rgb(0, 0, 0), rgb(255, 255, 255)); font-size: 18px;&quot;&gt;Layout Adjustments:&lt;/strong&gt;&lt;span style=&quot;background-color: transparent; color: light-dark(rgb(0, 0, 0), rgb(255, 255, 255)); font-size: 18px;&quot;&gt; Resize or reposition playlist sections.&amp;nbsp;&lt;/span&gt;&lt;strong style=&quot;background-color: transparent; color: light-dark(rgb(0, 0, 0), rgb(255, 255, 255)); font-size: 18px;&quot;&gt;Animated Accents:&lt;/strong&gt;&lt;span style=&quot;background-color: transparent; color: light-dark(rgb(0, 0, 0), rgb(255, 255, 255)); font-size: 18px;&quot;&gt; Enable smooth pixel animations for moss growth effects.&lt;/span&gt;&lt;/div&gt;&lt;/font&gt;&lt;p&gt;&lt;/p&gt;" style="text;html=1;whiteSpace=wrap;overflow=hidden;rounded=0;fontFamily=Helvetica;fontSize=12;labelBackgroundColor=none;" vertex="1" parent="1">
          <mxGeometry x="70" y="670" width="720" height="180" as="geometry" />
        </mxCell>
        <mxCell id="C7TibH1BOBcT31BDN6Mo-35" value="&lt;p style=&quot;margin-top: 0px;&quot;&gt;&lt;/p&gt;&lt;h2&gt;&lt;font style=&quot;font-size: 18px;&quot;&gt;System Functions&lt;/font&gt;&lt;/h2&gt;&lt;h2&gt;&lt;font size=&quot;3&quot;&gt;&lt;strong style=&quot;background-color: transparent; color: light-dark(rgb(0, 0, 0), rgb(255, 255, 255));&quot;&gt;Music Library Management:&lt;/strong&gt;&lt;span style=&quot;background-color: transparent; color: light-dark(rgb(0, 0, 0), rgb(255, 255, 255)); font-weight: normal;&quot;&gt; Add, remove, or organize tracks within playlists.&amp;nbsp;&lt;/span&gt;&lt;strong style=&quot;background-color: transparent; color: light-dark(rgb(0, 0, 0), rgb(255, 255, 255));&quot;&gt;File Format Support:&lt;/strong&gt;&lt;span style=&quot;background-color: transparent; color: light-dark(rgb(0, 0, 0), rgb(255, 255, 255)); font-weight: normal;&quot;&gt; Compatible with MP3, WAV, and other formats.&amp;nbsp;&lt;/span&gt;&lt;strong style=&quot;background-color: transparent; color: light-dark(rgb(0, 0, 0), rgb(255, 255, 255));&quot;&gt;Online Playback:&lt;/strong&gt;&lt;span style=&quot;background-color: transparent; color: light-dark(rgb(0, 0, 0), rgb(255, 255, 255)); font-weight: normal;&quot;&gt; Play stored music files without internet access.&amp;nbsp;&lt;/span&gt;&lt;strong style=&quot;background-color: transparent; color: light-dark(rgb(0, 0, 0), rgb(255, 255, 255));&quot;&gt;Background Play:&lt;/strong&gt;&lt;span style=&quot;background-color: transparent; color: light-dark(rgb(0, 0, 0), rgb(255, 255, 255)); font-weight: normal;&quot;&gt; Continue playback while using other applications.&lt;/span&gt;&lt;/font&gt;&lt;/h2&gt;&lt;p&gt;&lt;/p&gt;" style="text;html=1;whiteSpace=wrap;overflow=hidden;rounded=0;fontFamily=Helvetica;fontSize=12;background-color=black;labelBackgroundColor=none;" vertex="1" parent="1">
          <mxGeometry x="560" y="30" width="280" height="260" as="geometry" />
        </mxCell>
      </root>
    </mxGraphModel>
  </diagram>
</mxfile>
